<svg version="1" xmlns="http://www.w3.org/2000/svg" width="841.333" height="841.333" viewBox="0 0 631.000000 631.000000"><path d="M289.3 42.7c2 .2 5.4.2 7.5 0 2-.2.3-.4-3.8-.4s-5.8.2-3.7.4zM320.3 42.7c.9.2 2.5.2 3.5 0 .9-.3.1-.5-1.8-.5-1.9 0-2.7.2-1.7.5zM275 51c-55.3 3.1-108.2 21.6-143.2 50.1-3.5 2.9-9.9 8.7-14.3 12.9l-8 7.8-16.5.5c-14.1.4-17.8.9-25.5 3.1-13.3 4-23.4 9.7-32.7 18.4-16.2 15.4-24.2 32.4-26.3 56.2-.7 8.4.9 29.9 3 40.1C16 261.6 29 281.6 44 290c3.4 1.9 6.7 4 7.4 4.7.9.8 1.5 6.7 2 20 .9 24.1 4.5 53.8 10.2 82.8 5.4 27.1 10.2 43.9 14.9 51.5 2.8 4.7 3.7 7.9 5.9 20.5 4.2 23.8 7.4 36.9 12.8 53 10.6 31.4 13.1 36 21.4 39.7 5 2.2 27.3 4.8 42.9 5.1 10.3.2 11.3 0 15.6-2.5 7.4-4.4 11.8-12.7 11.9-22.6 0-1.7.2-3.2.4-3.2.3 0 4.2 2.7 8.8 6 17.1 12.3 46.2 24.6 71 29.9 11.5 2.5 37.4 5.1 50.3 5.1 51.7 0 91.8-13.5 127.8-42.9l8.5-7 7.4.6c6.1.5 8.2.2 11.9-1.5 2.4-1.1 15.6-9.8 29.4-19.4 31.1-21.7 30.8-21.2 31.5-39.6l.5-12.5 14.5-8.9c8-4.9 15.7-10.1 17.2-11.5 5.7-5.4 11.4-23.4 14.5-45.7 2.2-15.7 2.5-74.2.4-91.6-1.2-10.7-1.2-11.5.5-12.5 24.1-13.9 37.4-42.4 39.1-83.5.6-16.1-.8-26.3-5.2-37.2-7.5-18.4-23.3-34.2-42.3-42.2-12.3-5.2-22.3-7-38.7-7-9.5 0-16.1.5-17.9 1.2-2.8 1.2-3.2 1-10.5-5.6-23.4-20.9-49.6-35.6-83.9-46.8-14.2-4.7-45.8-11.5-62.2-13.3-24.6-2.8-58.6-3.6-87-2.1zm55.2 29c88.5 4.9 151 34.4 186.1 88 12 18.4 22.4 44.7 27.1 68.8 8.1 41.4 11.7 73.9 11.8 104.7 0 26.3-1.2 43.5-4.3 58.5-3.2 15.9-3.5 16.2-20.4 26.3l-11 6.6-.3-36.6c-.2-32.4-.4-36.9-1.9-38.5-1.7-1.9-4.9-2.3-7.2-.9-2.5 1.6-3 10.6-3 62.6-.1 28-.5 51.5-.9 52.1-1.3 1.9-33.3 23.6-33.9 23-.4-.3.2-41.5 1.1-91.6 1-50 1.5-91.8 1.1-92.9-.3-1.2-1.8-2.4-3.2-2.7-1.4-.4-14.3-.2-28.7.4-14.4.6-26.4.7-26.7.4-.4-.4-2.1-9.3-3.9-19.7-1.8-10.5-3.6-19.8-4.1-20.7-1.4-2.7-4.5-3.1-13.5-1.8-6.4.9-8.8 1.7-9.8 3.2-1.1 1.6-1.3 5.8-.9 21.8l.6 19.8-4.4.6c-8.3 1-89 3.9-89.7 3.1-.4-.3-1.2-11.9-1.8-25.6-1.2-29.6-.6-28.2-12.4-28.7-11.7-.6-11.5-1-17.5 28l-5 23.8H250c-1.9 0-19.2-1.6-38.5-3.5-19.2-1.9-36.7-3.5-38.7-3.5-7.6 0-7.1-6.6-6.4 86.9.3 46 .9 88.9 1.2 95.5.5 9.6.3 11.7-.8 11.4-.7-.3-7-6.6-13.9-14.1-12-13.1-12.7-14-14.7-20.9-1.2-4-2.6-10.7-3.2-14.8-1.3-9.5-3-43.1-3-62.2 0-14.4-.1-14.8-2.4-16.3-3.6-2.4-7.3-.6-8.2 4.1-1 5.2.3 59.9 1.6 71.4 1.2 10.5 5.3 27.3 7.4 30.5.8 1.1 6.3 7.5 12.3 14.1l11 12.1.7 9.3c.4 5.1 1.4 12.9 2.2 17.2.8 4.4 1.4 8.1 1.2 8.2-.2.1-5.6-.3-12.1-.8-8.3-.8-12-1.5-12.7-2.6-2-3.2-13-38.3-15.4-49.2-7.1-31.8-9.7-62.5-9.5-111.1.1-33.7.1-34-5.5-33.5-5.4.5-5.8 2.7-6.4 35.5-.3 16.1-.6 29.2-.8 29.1-.1-.2-1.8-9.1-3.8-19.8-15.8-85.1-11-154.2 14.1-204.4 8.8-17.6 16.9-29 30.3-43 33.8-35.2 84.6-54.6 151-57.5 24.4-1.1 24.1-1.1 43.2-.1zm-53.8 197.2c.3 2.9.9 14.7 1.3 26.1.7 19.2 1 21 2.8 22.4 1.7 1.2 4.4 1.4 16.5.9 8-.3 31.4-1.3 52-2.1 20.6-.9 38.9-1.8 40.7-2.1 6.4-1 6.5-1.5 6.1-24.3-.3-17.8-.1-20.6 1.2-20.6 1.2 0 2.2 4.3 4.8 19.5 2.2 13.2 3.9 20.1 5 21.3 1.6 1.8 3.1 1.9 29.6 1.2l27.9-.8-.6 6.9c-.4 3.8-.7 10.2-.7 14.3v7.4l-4.7-4.8c-6.6-6.6-14.8-11.7-23.5-14.6-6.5-2.1-9-2.4-22.8-2.3-24.7 0-36.5 3.7-47.5 14.8-10.9 11-15.9 23.9-15.7 40.6.1 18.5 6.4 34.2 18.7 46.6 7.8 7.9 12 10.4 21.6 12.9 9.2 2.4 15.6 6.1 21.9 13 16.1 17.4 22.6 23.2 29 26.3 3.6 1.6 9.4 3.6 13 4.3 3.6.6 6.7 1.3 6.9 1.5.7.6-9.6 13.2-17.9 21.8-31.5 33-77.1 49.4-130.5 47.2-25.9-1-47.1-5.4-68.4-13.9-13.4-5.4-23.2-10.9-34.3-19.2-9.7-7.3-23.4-21.3-27.1-27.6l-2.6-4.4-.7-86.3c-.5-66.6-.4-86.2.5-86.2 1.4 0 60 5.7 71.1 6.9 8.1.9 11.4.2 12.8-2.6.5-1 3.1-12.5 5.8-25.5 5-24.5 6.8-28.6 7.8-18.6zm168.3 90.9c4.7 3.9 5.7 6.7 5.7 14.9 0 6.4-.4 8.5-3.1 14.2-3.3 7-9.5 14-15.3 17.2l-3.5 1.9 3.7-3.9c2-2.1 5-6.6 6.5-9.9 2.6-5.6 2.8-6.8 2.7-18.2-.1-10.9-.3-12.7-2.6-17.2l-2.5-5.1 2.7 1.7c1.5 1 4.1 3 5.7 4.4zm-61.4-.2c-3.6 7-5 18.9-3.5 29.2 1.3 8.8 3 12.9 7.6 17.8 3 3.2 3 3.3.6 2.6-8.3-2.5-15.7-9.3-17.8-16.4-3.8-12.4 1.8-30 11.5-36.2 4.2-2.7 4.4-2.3 1.6 3z"/><path d="M205.4 347.5c-2.6 3.4-2.8 3.5-9.5 3.5s-6.9.1-7.5 2.7c-1.1 5.3-2.7 9.8-4.2 12.4-1.8 3.3-.9 7.5 1.8 8.4 1.5.5 3.5-.6 7.7-4.4 5.9-5.3 8-6.3 6.8-3.4-2.1 5.3-2.7 9.7-2.3 19.3.4 12 2.8 18.7 9.3 25.8 13.7 15.2 43 12.3 49.9-4.9 4.4-10.9 4-29.4-.8-39.2-1.2-2.6-2.1-4.7-1.9-4.7.2 0 2.6 1.2 5.4 2.6 7.9 3.9 8.6 2.9 3.5-4.7-6.3-9.4-11.9-11.7-36.7-15.3-16.4-2.4-18.3-2.3-21.5 1.9zM349.8 488.3c-13.2 10.2-20.1 13.1-30.3 13.2-7.2 0-8.8-.4-15.5-3.6-4.1-2-11.2-6.4-15.8-9.8-8.4-6.3-11.8-7.3-14.6-4.6-4.2 4.2-2.8 7.8 5.5 14.2 19.8 15.2 34.9 19.7 51.8 15.5 9.9-2.6 15.8-5.8 27.1-15 7.5-6 8.5-7.3 8.8-10.4.2-2.8-.2-4-2-5.2-1.2-.9-3-1.6-3.9-1.6-.9 0-5.9 3.3-11.1 7.3zM630.4 199c0 6.9.1 9.7.3 6.2.2-3.4.2-9 0-12.5-.2-3.4-.3-.6-.3 6.3zM.2 198c0 1.4.2 1.9.5 1.2.2-.6.2-1.8 0-2.5-.3-.6-.5-.1-.5 1.3zM.1 217.6c0 1.1.3 1.4.6.6.3-.7.2-1.6-.1-1.9-.3-.4-.6.2-.5 1.3zM333.3 587.7c.9.2 2.3.2 3 0 .6-.3-.1-.5-1.8-.5-1.6 0-2.2.2-1.2.5z"/></svg>