<?xml version="1.0" encoding="utf-8"?>
<!-- Generator: Adobe Illustrator 16.0.0, SVG Export Plug-In . SVG Version: 6.00 Build 0)  -->
<!DOCTYPE svg PUBLIC "-//W3C//DTD SVG 1.1//EN" "http://www.w3.org/Graphics/SVG/1.1/DTD/svg11.dtd">
<svg version="1.1" id="Layer_1" xmlns="http://www.w3.org/2000/svg" xmlns:xlink="http://www.w3.org/1999/xlink" x="0px" y="0px"
	 width="5627.63px" height="4848.331px" viewBox="0 0 5627.63 4848.331" enable-background="new 0 0 5627.63 4848.331"
	 xml:space="preserve">
<g>
	<path fill-rule="evenodd" clip-rule="evenodd" fill="#010101" d="M5627.63,1446.124c-1.766,12.839-3.878,25.638-5.231,38.519
		c-12.954,124.535-37.1,246.652-83.903,363.167c-25.547,63.637-57.366,124.428-101.662,177.586
		c-50.005,59.974-106.645,112.108-177.676,146.559c-7.871,3.804-9.341,7.979-8.301,16.379c3.91,31.976,6.947,64.067,9.869,96.157
		c3.614,39.542,6.865,79.134,10.051,118.719c1.354,16.725,2.442,33.477,3.086,50.252c1.188,30.045,2.344,60.09,2.806,90.15
		c1.122,75.676,3.581,151.395,2.244,227.021c-1.386,79.473-5.991,158.93-10.216,238.318
		c-4.901,91.553-18.483,182.018-37.513,271.623c-14.604,68.762-32.907,136.557-62.151,200.896
		c-21.34,46.969-57.3,79.58-101.248,105.152c-40.814,23.756-80.687,49.172-120.938,73.926
		c-35.351,21.744-70.535,43.775-106.084,65.197c-6.156,3.715-8.186,7.535-8.12,14.582c0.313,47.381-0.709,94.811,0.347,142.193
		c1.897,84.762-36.671,147.523-104.235,194.41c-106.762,74.135-214.083,147.508-321.042,221.361
		c-30.185,20.844-59.594,42.777-89.978,63.273c-35.795,24.129-73.969,40.27-118.891,38.404
		c-33.238-1.402-66.501,0.709-94.317-16.008c-43.685,37.115-84.2,74.941-128.256,108.047
		c-52.547,39.494-106.886,76.973-162.667,111.713c-116.474,72.5-241.974,125.689-373.02,165.729
		c-91.033,27.807-183.617,49.195-278.207,60.551c-47.753,5.742-95.721,10.678-143.704,13.07
		c-66.674,3.316-133.513,5.941-200.228,5.1c-63.068-0.809-126.293-4.373-189.089-10.529
		c-69.396-6.816-139.099-14.357-207.349-28.154c-75.644-15.283-150.214-36.473-224.456-57.895
		c-103.418-29.855-201.35-73.754-296.41-123.859c-86.206-45.449-167.519-98.658-243.962-159.176
		c-4.398-3.465-8.434-7.41-11.685-10.281c0,29.029,1.469,58.143-0.347,87.055c-2.723,43.604-19.871,82.469-47.266,116.021
		c-31.456,38.551-71.799,65.65-121.094,73.373c-31.117,4.852-63.613,2.756-95.366,1.221c-33.015-1.551-65.881-6.221-98.823-9.473
		c-43.478-4.273-86.964-8.516-130.451-12.773c-28.551-2.805-57.416-3.879-85.595-8.813
		c-79.514-13.945-135.972-59.148-164.548-134.238c-34.228-89.912-65.791-180.896-96.215-272.209
		c-32.858-98.543-59.907-198.883-79.373-300.99c-16.157-84.695-30.3-169.771-45.236-254.689c-0.767-4.34-0.702-8.805-0.999-13.236
		c-1.543-23.822-8.656-43.453-27.124-61.533c-24.219-23.73-34.682-57.143-45.665-88.861
		c-34.129-98.725-60.057-199.734-81.172-301.906c-18.435-89.193-36.118-178.602-51.557-268.381
		c-12.279-71.377-21.191-143.357-30.631-215.213c-6.898-52.498-12.807-105.168-18.063-157.863
		c-3.804-38.205-6.759-76.568-8.434-114.922c-4.118-94.49-7.254-189.032-10.852-285.073c-46.771-18.707-92.79-43.825-133.669-77.418
		c-67.73-55.633-123.429-121.07-164.02-199.411c-50.451-97.354-79.637-201.128-94.705-308.961
		c-6.651-47.555-7.88-95.877-11.726-143.845c-0.248-3.218-1.684-6.337-2.566-9.514c0-32.784,0-65.568,0-98.352
		c0.883-4.498,2.22-8.962,2.583-13.508c2.261-28.147,2.607-56.583,6.758-84.457c10.438-70.222,31.191-137.532,58.793-203.092
		c43.899-104.285,111.952-190.953,197.489-262.603c135.617-113.585,295.825-166.66,471.034-174.64
		c54.123-2.459,108.675,1.865,162.873,5.504c15.397,1.04,23.517-2.244,34.154-13.327c74.191-77.228,150.313-152.492,236.66-216.525
		c96.718-71.74,197.967-136.178,307.698-186.225c62.97-28.724,126.351-56.747,190.689-82.187
		c123.182-48.693,250.943-82.105,380.66-108.114c131.005-26.273,263.395-42.232,396.62-50.624
		c62.597-3.953,125.451-4.11,188.189-5.744c18.137-0.47,36.308,0.091,54.478-0.189c4.061-0.066,8.104-1.658,12.163-2.542
		c38.099,0,76.205,0,114.304,0c3.605,0.883,7.212,2.442,10.843,2.558c56.541,1.914,113.122,2.888,169.598,5.636
		c49.799,2.434,99.557,6.082,149.207,10.554c51.45,4.621,103.106,8.532,153.986,16.908c95.068,15.653,190.069,32.297,284.255,52.406
		c67.706,14.449,134.768,32.966,200.848,53.645c101.529,31.761,201.434,68.217,297.755,114.096
		c86.974,41.424,172.495,85.307,253.526,137.507c109.271,70.412,211.112,150.165,301.767,243.64
		c5.396,5.562,9.803,6.792,17.213,4.002c36.654-13.739,74.876-22.238,113.758-23.567c71.593-2.451,143.366-2.484,214.463,8.194
		c95.489,14.342,186.556,42.694,272.753,86.875c90.273,46.267,163.318,112.859,227.533,189.93
		c35.895,43.074,62.35,92.271,84.795,143.316c24.953,56.764,43.602,115.689,52.283,177.412c2.492,17.65,5.281,35.251,7.904,52.869
		C5627.63,1332.696,5627.63,1389.41,5627.63,1446.124z M4143.986,4047.292c-0.775,45.98-1.98,91.975-2.195,137.969
		c-0.182,37.645,35.697,60.107,69.529,43.818c8.252-3.979,15.447-10.133,23.072-15.35c86.016-59.115,172.032-118.182,258.015-177.33
		c50.616-34.838,101.199-69.793,151.733-104.779c14.705-10.184,23.27-24.359,23.732-42.281c1.188-46.426,2.063-92.883,2.59-139.34
		c0.413-34.988-0.214-70.016,0.545-104.979c0.115-5.512,3.615-13.301,8.021-16.025c103.823-64.141,208.191-127.439,311.899-191.777
		c11.42-7.088,21.57-18.27,28.634-29.83c7.69-12.568,11.651-27.594,16.271-41.854c26.703-82.451,44.841-166.85,54.842-252.85
		c8.021-68.703,15.381-137.506,20.694-206.426c3.863-50.186,4.771-100.662,5.414-151.021c0.545-41.557-0.974-83.145-2.096-124.701
		c-1.568-57.877-3.301-115.756-5.596-173.617c-1.072-27.305-3.152-54.602-5.627-81.822c-3.895-42.564-8.153-85.085-12.889-127.54
		c-4.324-38.502-9.21-76.955-14.475-115.343c-3.977-29.087-8.961-58.026-13.467-86.824c1.865-1.082,2.922-1.997,4.126-2.344
		c2.558-0.693,5.166-1.048,7.757-1.609c79.777-17.196,148.283-54.577,202.2-116.234c56.69-64.842,92.188-141.385,113.742-223.853
		c15.464-59.107,27.147-119.353,37.661-179.583c7.69-44.163,12.427-89.02,15.463-133.785c3.268-48.116-1.386-96.199-10.166-143.646
		c-21.273-114.732-72.086-213.332-159.67-292.053c-78.805-70.85-172.082-112.322-274.635-132.787
		c-46.887-9.349-95.291-10.958-142.871-17.14c-33.782-4.381-66.888-0.362-99.928,5.257c-45.434,7.74-87.534,24.45-126.054,49.807
		c-6.057,3.961-10.001,4.663-15.397-1.98c-13.087-16.107-26.735-31.843-41.159-46.771
		c-52.597-54.437-106.431-107.487-165.134-155.554c-97.255-79.604-201.903-147.755-313.302-205.567
		c-104.963-54.47-214.24-98.708-326.546-135.716c-96.059-31.653-193.784-57.217-292.829-77.153
		c-64.29-12.939-129.214-22.808-194.048-32.776c-46.993-7.22-94.227-13.038-141.476-18.17c-35.937-3.886-72.046-6.056-108.139-8.367
		c-58.118-3.73-116.251-9.176-174.434-9.886c-92.478-1.106-185.029,0-277.498,2.294c-59.495,1.452-119.015,5.38-178.319,10.611
		c-60.948,5.389-121.928,11.858-182.355,21.256c-70.453,10.942-140.766,23.617-210.361,39.031
		c-123.487,27.362-243.681,65.774-360.361,114.963c-94.367,39.782-185.103,86.445-271.424,141.566
		c-74.662,47.67-145.33,100.646-210.939,160.257c-53.777,48.85-104.838,100.324-151.156,156.378
		c-18.508,22.395-36.786,44.988-55.476,67.862c-53.876-26.62-111.225-37.001-170.613-36.588
		c-21.991,0.165-43.965,3.086-65.939,4.803c-65.057,5.107-128.141,19.177-188.874,43.041
		c-90.811,35.68-167.931,90.423-227.55,168.137c-77.013,100.375-112.397,216.096-120.22,340.78
		c-2.393,38.255-0.899,77.046,2.319,115.293c4.332,51.285,10.199,102.585,18.772,153.317
		c13.483,79.762,38.577,155.95,80.066,225.999c62.391,105.35,153.458,170.159,274.321,191.573
		c11.049,1.955,12.65,5.842,12.196,15.076c-1.18,24.285-2.575,48.578-2.475,72.879c0.197,49.98,0.379,100.011,2.252,149.95
		c2.756,73.225,6.469,146.418,10.81,219.563c2.567,43.107,6.345,86.172,11.016,129.105c5.149,47.275,11.66,94.4,18.112,141.525
		c6.981,51.029,13.492,102.174,22.156,152.947c12.006,70.297,24.92,140.484,39.088,210.395
		c23.229,114.566,50.212,228.209,86.916,339.41c10.1,30.58,22.387,57.877,55.773,69.049c2.831,0.949,5.735,2.873,7.633,5.141
		c2.616,3.104,5.653,6.824,6.156,10.605c6.478,47.982,11.116,96.271,19.004,144.025c13.071,79.035,26.463,158.135,42.752,236.543
		c30.506,146.799,75.041,289.555,128.817,429.471c11.833,30.828,22.008,62.283,32.504,93.607
		c7.921,23.666,24.937,36.604,50.22,37.793c11.891,0.561,23.732,1.98,35.582,3.135c33.741,3.318,67.491,6.783,101.241,10.035
		c31.142,3.002,62.292,6.023,93.467,8.68c32.495,2.773,64.999,6.223,97.56,6.932c9.812,0.215,21.563-5.678,29.368-12.328
		c19.945-17.014,22.007-40.994,17.494-64.727c-12.072-63.604-26.257-126.813-37.892-190.482
		c-4.671-25.646-4.868-52.135-7.344-81.115c7.435,4.342,11.957,6.85,16.364,9.572c12.427,7.625,24.293,16.389,37.331,22.775
		c28.427,13.994,60.254,1.535,67.474-28.996c4.852-20.549,2.591-42.811,3.136-64.299c0.578-22.791,0.701-45.566,1.023-68.357
		c21.264,27.709,41.151,56.607,64.025,82.932c121.499,139.816,270.549,242.6,437.275,320.711
		c157.517,73.803,323.063,121.201,495.417,143.662c72.598,9.457,145.659,17.346,218.744,20.365
		c90.597,3.746,181.522,4.307,271.854-6.965c59.05-7.344,118.396-13.746,176.752-24.969
		c146.964-28.254,287.557-75.982,420.353-145.676c156.815-82.287,294.562-188.965,410.3-323.172
		C4086.068,4124.413,4114.289,4085.218,4143.986,4047.292z"/>
	<path fill-rule="evenodd" clip-rule="evenodd" fill="#3E3E3E" d="M1559.924,4093.964c-0.322,22.791-0.445,45.566-1.023,68.357
		c-0.544,21.488,1.716,43.75-3.136,64.299c-7.22,30.531-39.047,42.99-67.474,28.996c-13.038-6.387-24.904-15.15-37.331-22.775
		c-4.407-2.723-8.929-5.23-16.364-9.572c2.476,28.98,2.673,55.469,7.344,81.115c11.635,63.67,25.82,126.879,37.892,190.482
		c4.513,23.732,2.451,47.713-17.494,64.727c-7.806,6.65-19.556,12.543-29.368,12.328c-32.561-0.709-65.064-4.158-97.56-6.932
		c-31.175-2.656-62.326-5.678-93.467-8.68c-33.75-3.252-67.5-6.717-101.241-10.035c-11.85-1.154-23.69-2.574-35.582-3.135
		c-25.283-1.189-42.298-14.127-50.22-37.793c-10.496-31.324-20.67-62.779-32.504-93.607
		c-53.776-139.916-98.311-282.672-128.817-429.471c-16.29-78.408-29.682-157.508-42.752-236.543
		c-7.888-47.754-12.526-96.043-19.004-144.025c-0.503-3.781-3.54-7.502-6.156-10.605c-1.897-2.268-4.802-4.191-7.633-5.141
		c-33.386-11.172-45.673-38.469-55.773-69.049c-36.704-111.201-63.687-224.844-86.916-339.41
		c-14.168-69.91-27.082-140.098-39.088-210.395c-8.664-50.773-15.175-101.918-22.156-152.947
		c-6.453-47.125-12.963-94.25-18.112-141.525c-4.671-42.934-8.449-85.998-11.016-129.105c-4.34-73.145-8.053-146.338-10.81-219.563
		c-1.874-49.939-2.055-99.97-2.252-149.95c-0.1-24.301,1.295-48.594,2.475-72.879c0.454-9.233-1.146-13.121-12.196-15.076
		c-120.863-21.414-211.93-86.223-274.321-191.573c-41.49-70.049-66.583-146.237-80.066-225.999
		c-8.573-50.731-14.44-102.032-18.772-153.317c-3.218-38.247-4.712-77.038-2.319-115.293
		c7.823-124.684,43.207-240.406,120.22-340.78c59.619-77.714,136.739-132.457,227.55-168.137
		c60.733-23.864,123.817-37.933,188.874-43.041c21.974-1.717,43.949-4.638,65.939-4.803c59.388-0.413,116.737,9.968,170.613,36.588
		c18.69-22.874,36.968-45.467,55.476-67.862c46.317-56.054,97.379-107.529,151.156-156.378
		c65.609-59.611,136.277-112.587,210.939-160.257c86.321-55.122,177.057-101.785,271.424-141.566
		c116.68-49.189,236.874-87.601,360.361-114.963c69.595-15.415,139.908-28.089,210.361-39.031
		c60.428-9.398,121.407-15.868,182.355-21.256c59.305-5.231,118.824-9.159,178.319-10.611c92.469-2.294,185.021-3.4,277.498-2.294
		c58.183,0.709,116.315,6.156,174.434,9.886c36.093,2.311,72.202,4.481,108.139,8.367c47.249,5.133,94.482,10.951,141.476,18.17
		c64.834,9.968,129.758,19.837,194.048,32.776c99.045,19.936,196.771,45.5,292.829,77.153
		c112.306,37.009,221.583,81.247,326.546,135.716c111.398,57.812,216.047,125.963,313.302,205.567
		c58.703,48.067,112.537,101.117,165.134,155.554c14.424,14.927,28.072,30.664,41.159,46.771c5.396,6.643,9.341,5.942,15.397,1.98
		c38.52-25.357,80.62-42.067,126.054-49.807c33.04-5.619,66.146-9.638,99.928-5.257c47.58,6.181,95.984,7.791,142.871,17.14
		c102.553,20.464,195.83,61.937,274.635,132.787c87.584,78.721,138.396,177.321,159.67,292.053
		c8.78,47.447,13.434,95.531,10.166,143.646c-3.036,44.765-7.772,89.622-15.463,133.785
		c-10.514,60.23-22.197,120.476-37.661,179.583c-21.554,82.468-57.052,159.011-113.742,223.853
		c-53.917,61.657-122.423,99.038-202.2,116.234c-2.591,0.562-5.199,0.917-7.757,1.609c-1.204,0.347-2.261,1.262-4.126,2.344
		c4.506,28.798,9.49,57.737,13.467,86.824c5.265,38.388,10.15,76.84,14.475,115.343c4.735,42.455,8.994,84.976,12.889,127.54
		c2.475,27.221,4.555,54.518,5.627,81.822c2.295,57.861,4.027,115.74,5.596,173.617c1.122,41.557,2.641,83.145,2.096,124.701
		c-0.644,50.359-1.551,100.836-5.414,151.021c-5.313,68.92-12.674,137.723-20.694,206.426c-10.001,86-28.139,170.398-54.842,252.85
		c-4.62,14.26-8.581,29.285-16.271,41.854c-7.063,11.561-17.214,22.742-28.634,29.83
		c-103.708,64.338-208.076,127.637-311.899,191.777c-4.405,2.725-7.905,10.514-8.021,16.025
		c-0.759,34.963-0.132,69.99-0.545,104.979c-0.527,46.457-1.402,92.914-2.59,139.34c-0.463,17.922-9.027,32.098-23.732,42.281
		c-50.534,34.986-101.117,69.941-151.733,104.779c-85.982,59.148-171.999,118.215-258.015,177.33
		c-7.625,5.217-14.82,11.371-23.072,15.35c-33.832,16.289-69.711-6.174-69.529-43.818c0.215-45.994,1.42-91.988,2.195-137.969
		c0.132-19.969,0.265-39.953,0.396-59.924c-0.131-2.541-0.279-5.1-0.412-7.674c0.991-3.646,2.789-7.295,2.872-10.959
		c1.072-45.516,1.881-91.016,2.789-136.516c0.857-44.592,1.766-89.219,2.624-133.834c0.907-45.938,1.782-91.893,2.689-137.83
		c0.858-44.617,1.767-89.217,2.641-133.834c0.892-45.938,1.75-91.9,2.657-137.828c0.875-44.172,1.815-88.336,2.641-132.523
		c0.957-50.814,1.733-101.611,2.707-152.426c0.775-39.303,1.848-78.59,2.591-117.9c0.974-50.377,1.716-100.746,2.558-151.107
		c1.519-93.641,3.037-187.289,4.571-282.424c-25.812,1.23-50.5,2.682-75.206,3.549c-58.381,2.029-116.753,3.73-175.126,5.719
		c-24.772,0.842-49.527,1.963-74.274,3.045c-53.9,2.377-107.783,5.355-161.717,6.957c-26.868,0.799-47.423-17.387-52.069-43.875
		c-9.977-56.938-19.604-113.949-29.302-170.927c-9.918-58.299-19.655-116.622-29.788-174.879c-0.536-3.086-4.118-8.219-5.983-8.087
		c-12.006,0.85-23.921,2.913-35.655,4.547c0.718,8.136,1.519,13.854,1.667,19.589c1.081,43.809,1.725,87.625,3.111,131.425
		c1.098,35.375,3.26,70.701,4.579,106.068c1.271,34.501,2.739,69.017,2.847,103.527c0.091,28.311-21.207,50.121-48.809,51.467
		c-57.853,2.828-115.756,5.371-173.633,7.961c-59.651,2.658-119.304,5.248-178.955,7.865c-82.195,3.59-164.367,7.303-246.563,10.67
		c-53.042,2.178-106.117,3.754-159.176,5.768c-23.427,0.908-46.828,2.27-70.246,3.365c-48.587,2.311-97.156,5.396-145.767,6.527
		c-27.833,0.645-49.115-21.924-50.211-49.848c-0.422-10.629-0.074-21.273-0.553-31.877c-3.326-74.678-6.957-149.34-10.133-224.01
		c-2.178-51.276-3.647-102.578-5.743-153.846c-0.636-15.744-2.286-31.431-3.449-46.877c-10.488,0-20.093,0-29.805,0
		c-1.345,6.295-2.55,11.882-3.713,17.46c-29.285,140.337-58.488,280.69-87.906,420.987c-5.866,28.006-26.941,45.525-53.347,44.055
		c-20.274-1.121-40.467-3.629-60.691-5.609c-41.746-4.109-83.483-8.344-125.237-12.402c-40.013-3.887-80.05-7.535-120.046-11.463
		c-40.871-4.018-81.708-8.424-122.596-12.402c-40.879-3.969-81.815-7.385-122.687-11.402c-49.667-4.877-99.268-10.191-148.918-15.16
		c-12.477-1.254-25.012-1.922-36.275-2.764c0,46.951-0.256,92.064,0.041,137.16c0.941,137.309,2.088,274.602,3.169,411.91
		c0.033,3.977,0.289,7.955,0.438,11.924c0.479,33.609,1.032,67.234,1.386,100.836c0.95,89.82,1.824,179.664,2.691,269.484
		c1.163,121.26,2.236,242.51,3.424,363.754c0.958,99.119,2.047,198.238,3.078,297.359
		C1558.751,4051.353,1559.33,4072.659,1559.924,4093.964z M1374.936,4470.954c-5.339-25.828-11.213-49.842-15.15-74.184
		c-7.253-44.824-14.729-89.68-19.54-134.818c-3.903-36.455-3.805-73.309-6.124-109.93c-0.297-4.637-3.713-9.77-7.039-13.432
		c-65.808-72.484-132.036-144.555-197.497-217.336c-8.607-9.555-15.522-21.801-19.714-34.014
		c-33.089-96.363-55.063-195.268-62.556-296.996c-5.355-72.73-9.192-145.602-13.12-218.422
		c-1.832-34.039-3.351-68.145-3.193-102.199c0.437-98.699,1.452-197.414,3.309-296.088c0.198-10.133,5.735-21.471,11.981-29.871
		c11.66-15.678,33.948-20.234,52.316-13.344c19.144,7.213,31.332,24.574,31.084,46.086c-0.759,69.455-3.4,138.936-2.509,208.391
		c1.065,84.076,4.068,168.145,7.988,252.139c2.806,59.99,7.501,119.965,13.195,179.789c7.558,79.324,25.68,156.561,51.499,231.932
		c1.518,4.439,3.994,8.945,7.138,12.41c64.322,70.816,128.703,141.6,193.33,212.119c17.502,19.094,36.036,37.182,61.153,48.686
		c0.116-2.393,0.281-3.994,0.256-5.578c-1.468-105.408-3.111-210.799-4.381-316.207c-1.023-85.504-1.567-170.984-2.417-256.488
		c-1.841-183.379-3.87-366.748-5.57-550.127c-0.701-75.313-0.478-150.643-1.246-225.949c-1.288-126.227-3.251-252.443-4.423-378.688
		c-0.339-35.665,26.917-57.639,62.177-53.43c39.476,4.721,79.117,8.037,118.709,11.809c50.153,4.761,100.333,9.176,150.47,14.076
		c49.683,4.854,99.301,10.324,148.993,15.151c50.121,4.869,100.325,9.102,150.454,13.963
		c56.656,5.486,113.271,11.361,171.347,17.203c5.578-26.619,11.024-52.398,16.404-78.184
		c24.854-119.139,49.593-238.302,74.646-357.407c5.603-26.612,24.985-43.825,50.863-44.345c37.645-0.743,75.33-0.808,112.958,0.025
		c28.551,0.627,49.758,22.676,51.078,51.152c0.454,9.729,0.1,19.49,0.553,29.219c3.325,72.491,6.981,144.958,10.076,217.45
		c2.277,53.496,3.696,107.033,5.792,160.537c0.61,15.324,2.228,30.598,3.49,47.455c60.188-2.896,119.774-5.973,179.385-8.549
		c70.733-3.076,141.484-5.734,212.234-8.557c26.521-1.055,53.067-1.889,79.588-3.119c70.709-3.283,141.419-6.922,212.118-10.049
		c50.386-2.213,100.82-3.682,151.222-5.795c14.367-0.594,28.658-2.244,41.556-3.291c0-19.219,0.347-37.373-0.09-55.502
		c-0.842-35.408-1.989-70.808-3.235-106.199c-2.294-65.015-5.231-130.014-6.873-195.055c-0.669-26.281,17.32-47.273,43.306-50.945
		c43.279-6.107,86.708-11.198,130.187-15.852c21.702-2.319,41.812,10.042,49.493,30.465c4.433,11.824,6.354,24.705,8.533,37.265
		c15.876,91.743,31.514,183.518,47.273,275.277c3.326,19.4,6.916,38.758,10.537,58.984c28.535-1.329,55.444-2.831,82.354-3.771
		c58.397-2.03,116.795-3.722,175.192-5.677c24.747-0.834,49.519-1.914,74.265-3.012c53.48-2.41,106.943-5.496,160.447-7.146
		c33.321-1.031,55.205,21.108,55.089,54.354c-0.083,22.568-1.849,45.137-2.327,67.705c-1.882,88.551-3.516,177.092-5.265,265.641
		c-1.815,92.105-3.614,184.195-5.43,276.285c-1.732,88.549-3.481,177.09-5.199,265.664c-1.814,92.09-3.613,184.17-5.429,276.26
		c-1.716,88.549-3.647,177.098-5.165,265.656c-1.486,88.078-2.592,176.141-3.862,264.715c2.376-1.254,5.215-2.393,7.674-4.076
		c105.325-72.482,210.667-144.934,315.761-217.779c3.779-2.641,6.898-9.16,6.932-13.912c1.255-129.775,2.228-259.576,2.921-389.391
		c1.04-201.104,1.832-402.24,2.739-603.367c0.017-3.541-0.23-7.146,0.347-10.604c2.74-16.24,8.45-30.887,23.799-39.41
		c34.723-19.293,73.489,3.152,73.803,43.75c0.396,51.813-0.857,103.643-1.238,155.479c-1.27,167.008-2.491,334.014-3.68,501.021
		c0,1.965,0.412,3.902,0.793,7.146c5.082-2.873,8.911-4.861,12.592-7.105c72.021-44.039,143.3-89.391,216.459-131.5
		c26.967-15.555,41.506-35.119,49.725-64.553c26.291-94.227,44.329-189.906,52.58-287.234
		c6.733-79.736,13.17-159.621,15.332-239.557c2.162-80.512-0.99-161.172-2.162-241.775c-0.297-20.77-1.485-41.572-3.053-62.301
		c-3.944-53.348-7.872-106.686-12.74-159.944c-4.061-44.427-8.434-88.863-14.523-133.051c-7.41-53.751-16.916-107.214-25.3-160.851
		c-14.21-91.148-26.967-182.537-42.711-273.421c-21.339-123.149-54.099-243.393-98.328-360.386
		c-74.133-196.062-179.706-372.954-322.808-526.667c-157.889-169.582-346.16-295.809-557.438-388.946
		c-191.58-84.465-392.172-137.672-598.094-172.131c-116.836-19.54-234.563-32.561-352.785-39.699
		c-80.793-4.885-161.843-7.831-242.8-7.897c-80.074-0.066-160.266,2.764-240.191,7.683c-74.909,4.596-149.628,12.847-224.281,20.835
		c-86.521,9.267-171.859,25.712-256.563,45.451c-167.222,38.964-328.271,94.919-480.202,175.737
		c-191.333,101.769-355.641,236.049-489.278,407.124c-142.343,182.207-236.618,387.922-297.203,609.901
		c-40.789,149.439-66.468,301.601-77.294,456.099c-4.794,68.357-9.266,136.879-9.926,205.369
		c-0.768,79.192,2.203,158.449,4.786,237.633c1.511,46.383,4.39,92.775,8.516,138.984c4.901,54.99,11.099,109.889,18.013,164.654
		c8.4,66.584,16.652,133.232,27.651,199.404c14.168,85.281,30.367,170.225,46.961,255.076c9.283,47.383,21.157,94.27,31.868,141.369
		c2.195-1.914,2.525-3.516,2.467-5.115c-1.626-34.469-4.126-68.91-4.794-103.402c-2.987-151.914-1.972-303.779,5.215-455.563
		c0.981-20.736,2.277-41.531,4.935-62.109c3.581-27.711,25.91-45.832,51.895-43.734c25.259,2.055,43.916,23.236,43.693,50.582
		c-0.124,15.027-1.749,30.02-2.261,45.047c-2.83,83.168-8.259,166.363-7.599,249.508c0.981,124.783,5.619,249.572,10.025,374.314
		c1.882,52.977,5.521,105.994,11.198,158.713c8.079,75.051,17.799,149.943,28.584,224.672
		c16.396,113.568,39.674,225.84,69.446,336.66c31.357,116.713,71.634,230.439,115.772,342.828
		c1.725,4.406,6.758,9.703,11.033,10.545c11.643,2.262,23.715,2.229,35.59,3.367c32.537,3.135,65.048,6.502,97.601,9.605
		C1311.745,4465.276,1342.458,4467.999,1374.936,4470.954z"/>
	<path fill-rule="evenodd" clip-rule="evenodd" fill="#F6DCCF" d="M1559.924,4093.964c-0.594-21.305-1.172-42.611-1.766-63.9
		c1.716,1.947,3.861,3.646,5.083,5.875c32.297,58.934,74.101,110.902,121.062,158.334c34.41,34.74,71.311,67.252,108.832,98.691
		c68.291,57.168,143.53,104.119,222.351,145.379c99.384,52.084,203.405,92.502,311.519,122.025
		c49.659,13.551,99.788,26.258,150.445,35.119c60.988,10.645,122.637,17.973,184.236,24.492
		c50.336,5.297,100.968,8.664,151.535,10.299c40.582,1.32,81.313-0.545,121.911-2.262c41.357-1.783,82.715-4.309,123.949-8.055
		c37.619-3.465,75.438-7.063,112.496-14.109c55.311-10.48,110.4-22.545,164.911-36.605c83.128-21.42,163.251-51.771,240.867-88.441
		c75.239-35.564,147.912-76.131,214.43-126.234c50.624-38.141,99.284-79.102,146.905-121.021
		c28.782-25.332,55.369-53.604,80.298-82.83c33.428-39.195,64.487-80.438,96.099-121.152c10.496-13.5,19.566-28.088,29.294-42.199
		c-0.131,19.971-0.264,39.955-0.396,59.924c-29.697,37.926-57.918,77.121-89.342,113.561
		c-115.738,134.207-253.484,240.885-410.3,323.172c-132.796,69.693-273.389,117.422-420.353,145.676
		c-58.356,11.223-117.702,17.625-176.752,24.969c-90.331,11.271-181.257,10.711-271.854,6.965
		c-73.085-3.02-146.146-10.908-218.744-20.365c-172.354-22.461-337.9-69.859-495.417-143.662
		c-166.727-78.111-315.777-180.895-437.275-320.711C1601.075,4150.571,1581.188,4121.673,1559.924,4093.964z"/>
	<path fill-rule="evenodd" clip-rule="evenodd" fill="#EFEFEF" d="M1374.936,4470.954c-32.479-2.955-63.191-5.678-93.863-8.615
		c-32.553-3.104-65.064-6.471-97.601-9.605c-11.875-1.139-23.947-1.105-35.59-3.367c-4.274-0.842-9.308-6.139-11.033-10.545
		c-44.138-112.389-84.415-226.115-115.772-342.828c-29.772-110.82-53.05-223.092-69.446-336.66
		c-10.785-74.729-20.505-149.621-28.584-224.672c-5.677-52.719-9.316-105.736-11.198-158.713
		c-4.407-124.742-9.044-249.531-10.025-374.314c-0.66-83.145,4.77-166.34,7.599-249.508c0.512-15.027,2.137-30.02,2.261-45.047
		c0.223-27.346-18.434-48.527-43.693-50.582c-25.985-2.098-48.314,16.023-51.895,43.734c-2.657,20.578-3.953,41.373-4.935,62.109
		c-7.188,151.783-8.203,303.648-5.215,455.563c0.668,34.492,3.168,68.934,4.794,103.402c0.058,1.6-0.272,3.201-2.467,5.115
		c-10.711-47.1-22.585-93.986-31.868-141.369c-16.594-84.852-32.792-169.795-46.961-255.076
		c-10.999-66.172-19.251-132.82-27.651-199.404c-6.915-54.766-13.112-109.664-18.013-164.654
		c-4.126-46.209-7.005-92.602-8.516-138.984c-2.583-79.184-5.554-158.441-4.786-237.633c0.66-68.489,5.132-137.011,9.926-205.369
		c10.827-154.498,36.506-306.66,77.294-456.099c60.584-221.979,154.86-427.695,297.203-609.901
		c133.637-171.075,297.945-305.355,489.278-407.124c151.931-80.817,312.98-136.772,480.202-175.737
		c84.704-19.738,170.042-36.184,256.563-45.451c74.653-7.988,149.372-16.24,224.281-20.835
		c79.926-4.918,160.117-7.749,240.191-7.683c80.957,0.066,162.007,3.012,242.8,7.897c118.222,7.138,235.949,20.159,352.785,39.699
		c205.922,34.459,406.514,87.667,598.094,172.131c211.277,93.137,399.549,219.364,557.438,388.946
		c143.102,153.713,248.675,330.605,322.808,526.667c44.229,116.993,76.989,237.237,98.328,360.386
		c15.744,90.885,28.501,182.273,42.711,273.421c8.384,53.636,17.89,107.099,25.3,160.851c6.09,44.188,10.463,88.624,14.523,133.051
		c4.868,53.258,8.796,106.596,12.74,159.944c1.567,20.729,2.756,41.531,3.053,62.301c1.172,80.604,4.324,161.264,2.162,241.775
		c-2.162,79.936-8.599,159.82-15.332,239.557c-8.251,97.328-26.289,193.008-52.58,287.234
		c-8.219,29.434-22.758,48.998-49.725,64.553c-73.159,42.109-144.438,87.461-216.459,131.5c-3.681,2.244-7.51,4.232-12.592,7.105
		c-0.381-3.244-0.793-5.182-0.793-7.146c1.188-167.008,2.41-334.014,3.68-501.021c0.381-51.836,1.635-103.666,1.238-155.479
		c-0.313-40.598-39.08-63.043-73.803-43.75c-15.349,8.523-21.059,23.17-23.799,39.41c-0.577,3.457-0.33,7.063-0.347,10.604
		c-0.907,201.127-1.699,402.264-2.739,603.367c-0.693,129.814-1.666,259.615-2.921,389.391c-0.033,4.752-3.152,11.271-6.932,13.912
		c-105.094,72.846-210.436,145.297-315.761,217.779c-2.459,1.684-5.298,2.822-7.674,4.076c1.271-88.574,2.376-176.637,3.862-264.715
		c1.518-88.559,3.449-177.107,5.165-265.656c1.815-92.09,3.614-184.17,5.429-276.26c1.718-88.574,3.467-177.115,5.199-265.664
		c1.815-92.09,3.614-184.18,5.43-276.285c1.749-88.549,3.383-177.09,5.265-265.641c0.479-22.568,2.244-45.137,2.327-67.705
		c0.116-33.246-21.768-55.385-55.089-54.354c-53.504,1.65-106.967,4.736-160.447,7.146c-24.746,1.098-49.518,2.178-74.265,3.012
		c-58.397,1.955-116.795,3.646-175.192,5.677c-26.909,0.94-53.818,2.442-82.354,3.771c-3.621-20.226-7.211-39.584-10.537-58.984
		c-15.76-91.759-31.397-183.535-47.273-275.277c-2.179-12.56-4.101-25.44-8.533-37.265c-7.682-20.424-27.791-32.784-49.493-30.465
		c-43.479,4.654-86.907,9.745-130.187,15.852c-25.985,3.672-43.975,24.664-43.306,50.945c1.642,65.041,4.579,130.04,6.873,195.055
		c1.246,35.392,2.394,70.792,3.235,106.199c0.437,18.13,0.09,36.284,0.09,55.502c-12.897,1.047-27.188,2.697-41.556,3.291
		c-50.401,2.113-100.836,3.582-151.222,5.795c-70.699,3.127-141.409,6.766-212.118,10.049c-26.521,1.23-53.067,2.064-79.588,3.119
		c-70.75,2.822-141.501,5.48-212.234,8.557c-59.61,2.576-119.196,5.652-179.385,8.549c-1.262-16.857-2.88-32.131-3.49-47.455
		c-2.096-53.504-3.515-107.041-5.792-160.537c-3.095-72.492-6.751-144.958-10.076-217.45c-0.453-9.729-0.099-19.491-0.553-29.219
		c-1.32-28.477-22.527-50.525-51.078-51.152c-37.628-0.833-75.313-0.768-112.958-0.025c-25.878,0.52-45.261,17.733-50.863,44.345
		c-25.053,119.105-49.791,238.269-74.646,357.407c-5.38,25.786-10.826,51.565-16.404,78.184
		c-58.076-5.842-114.691-11.717-171.347-17.203c-50.129-4.861-100.333-9.094-150.454-13.963
		c-49.692-4.827-99.31-10.297-148.993-15.151c-50.138-4.9-100.317-9.315-150.47-14.076c-39.592-3.771-79.233-7.088-118.709-11.809
		c-35.26-4.209-62.516,17.766-62.177,53.43c1.172,126.244,3.135,252.461,4.423,378.688c0.768,75.307,0.545,150.637,1.246,225.949
		c1.7,183.379,3.729,366.748,5.57,550.127c0.85,85.504,1.395,170.984,2.417,256.488c1.271,105.408,2.913,210.799,4.381,316.207
		c0.025,1.584-0.14,3.186-0.256,5.578c-25.118-11.504-43.651-29.592-61.153-48.686c-64.627-70.52-129.008-141.303-193.33-212.119
		c-3.144-3.465-5.62-7.971-7.138-12.41c-25.819-75.371-43.941-152.607-51.499-231.932c-5.694-59.824-10.389-119.799-13.195-179.789
		c-3.919-83.994-6.923-168.063-7.988-252.139c-0.891-69.455,1.75-138.936,2.509-208.391c0.248-21.512-11.94-38.873-31.084-46.086
		c-18.369-6.891-40.657-2.334-52.316,13.344c-6.246,8.4-11.783,19.738-11.981,29.871c-1.856,98.674-2.872,197.389-3.309,296.088
		c-0.157,34.055,1.361,68.16,3.193,102.199c3.928,72.82,7.765,145.691,13.12,218.422c7.493,101.729,29.467,200.633,62.556,296.996
		c4.192,12.213,11.107,24.459,19.714,34.014c65.46,72.781,131.689,144.852,197.497,217.336c3.326,3.662,6.742,8.795,7.039,13.432
		c2.319,36.621,2.22,73.475,6.124,109.93c4.811,45.139,12.286,89.994,19.54,134.818
		C1363.723,4421.112,1369.597,4445.126,1374.936,4470.954z"/>
	<path fill-rule="evenodd" clip-rule="evenodd" fill="#FBBEA2" d="M4144.381,3987.368c-9.728,14.111-18.798,28.699-29.294,42.199
		c-31.611,40.715-62.671,81.957-96.099,121.152c-24.929,29.227-51.516,57.498-80.298,82.83
		c-47.621,41.92-96.281,82.881-146.905,121.021c-66.518,50.104-139.19,90.67-214.43,126.234
		c-77.616,36.67-157.739,67.021-240.867,88.441c-54.511,14.061-109.601,26.125-164.911,36.605
		c-37.059,7.047-74.877,10.645-112.496,14.109c-41.234,3.746-82.592,6.271-123.949,8.055c-40.599,1.717-81.329,3.582-121.911,2.262
		c-50.567-1.635-101.199-5.002-151.535-10.299c-61.599-6.52-123.248-13.848-184.236-24.492
		c-50.657-8.861-100.786-21.568-150.445-35.119c-108.114-29.523-212.135-69.941-311.519-122.025
		c-78.821-41.26-154.06-88.211-222.351-145.379c-37.521-31.439-74.422-63.951-108.832-98.691
		c-46.961-47.432-88.765-99.4-121.062-158.334c-1.222-2.229-3.367-3.928-5.083-5.875c-1.031-99.121-2.121-198.24-3.078-297.359
		c-1.188-121.244-2.261-242.494-3.424-363.754c-0.867-89.82-1.741-179.664-2.691-269.484c-0.354-33.602-0.907-67.227-1.386-100.836
		c32.52-1.832,65.024-3.648,97.535-5.488c-0.833,29.418-4.167,59.025-2.021,88.229c5.867,80.1,41.886,147.137,97.139,203.742
		c35.161,36.004,76.453,64.703,123.751,82.609c27.388,10.363,56.466,16.281,84.787,24.186l-0.281-0.133
		c3.574,0.348,7.155,0.693,10.728,1.016c45.855,11.602,92.023,8.359,138.225,2.748c4.752,0.537,9.589,1.98,14.209,1.443
		c44.007-5.059,87.229-13.805,128.529-30.127c57.119-22.594,105.227-56.541,133.646-112.975
		c36.192-71.83,35.062-146.229,12.715-221.518c-10.562-35.564-28.815-67.334-50.079-97.486c35.506-2.738,71.014-5.396,106.497-8.227
		c21.025-1.684,42.026-3.631,63.026-5.504c38.058-3.416,76.089-7.063,114.163-10.215c26.298-2.203,52.662-3.416,78.96-5.66
		c47.679-4.102,95.325-8.773,143.011-12.98c41.572-3.672,83.17-7.131,124.766-10.537c54.742-4.498,109.468-8.922,164.243-13.088
		c2.953-0.215,6.105,2.311,9.176,3.539c-0.321,2.203-0.479,4.424-1.04,6.561c-23.798,91.635-25.052,183.816-4.983,276.078
		c27.271,125.385,82.971,235.662,178.105,323.666c45.393,42.002,96.71,75.33,158.325,87.361
		c103.081,20.102,186.786,69.885,250.737,153.697c39.757,52.117,82.972,101.166,132.713,144.521
		c83.342,72.664,180.159,109.746,289.809,115.605C4144.102,3982.269,4144.25,3984.827,4144.381,3987.368z M2851.988,4255.583
		c34.732-5.777,69.95-9.588,104.137-17.709c68.984-16.404,130.492-49.889,187.009-91.643
		c41.919-30.961,81.701-64.975,121.202-99.055c22.18-19.16,22.808-46.242,11.98-66.162c-13.037-24.078-36.818-33.551-64.115-24.393
		c-11.644,3.879-22.288,12.494-31.729,20.861c-49.105,43.553-100.118,84.432-157.525,116.795
		c-90.876,51.244-185.301,66.311-285.056,28.387c-63.893-24.293-121.069-60.141-174.978-101.58
		c-23.129-17.807-45.186-37.133-69.215-53.586c-22.783-15.629-56.343-7.146-71.411,15.514
		c-16.388,24.656-11.041,54.758,14.746,76.525c58.291,49.164,119.155,94.73,186.72,130.691
		C2694.999,4228.122,2770.213,4251.604,2851.988,4255.583z"/>
	<path fill-rule="evenodd" clip-rule="evenodd" fill="#FAAD89" d="M1645.114,2993.142c-32.511,1.84-65.015,3.656-97.535,5.488
		c-0.148-3.969-0.404-7.947-0.438-11.924c-1.081-137.309-2.228-274.602-3.169-411.91c-0.297-45.096-0.041-90.209-0.041-137.16
		c11.263,0.842,23.798,1.51,36.275,2.764c49.651,4.969,99.251,10.283,148.918,15.16c40.872,4.018,81.808,7.434,122.687,11.402
		c40.888,3.979,81.725,8.385,122.596,12.402c39.997,3.928,80.034,7.576,120.046,11.463c41.754,4.059,83.491,8.293,125.237,12.402
		c20.225,1.98,40.417,4.488,60.691,5.609c26.405,1.471,47.48-16.049,53.347-44.055c29.418-140.297,58.621-280.65,87.906-420.987
		c1.163-5.578,2.368-11.165,3.713-17.46c9.712,0,19.317,0,29.805,0c1.163,15.447,2.813,31.133,3.449,46.877
		c2.096,51.268,3.565,102.569,5.743,153.846c3.177,74.67,6.808,149.332,10.133,224.01c0.479,10.604,0.131,21.248,0.553,31.877
		c1.097,27.924,22.378,50.492,50.211,49.848c48.611-1.131,97.18-4.217,145.767-6.527c23.418-1.096,46.819-2.457,70.246-3.365
		c53.059-2.014,106.134-3.59,159.176-5.768c82.195-3.367,164.367-7.08,246.563-10.67c59.651-2.617,119.304-5.207,178.955-7.865
		c57.877-2.59,115.78-5.133,173.633-7.961c27.602-1.346,48.899-23.156,48.809-51.467c-0.107-34.51-1.576-69.026-2.847-103.527
		c-1.319-35.367-3.481-70.693-4.579-106.068c-1.387-43.8-2.03-87.617-3.111-131.425c-0.148-5.735-0.949-11.454-1.667-19.589
		c11.734-1.634,23.649-3.697,35.655-4.547c1.865-0.132,5.447,5.001,5.983,8.087c10.133,58.257,19.87,116.58,29.788,174.879
		c9.697,56.978,19.325,113.989,29.302,170.927c4.646,26.488,25.201,44.674,52.069,43.875c53.934-1.602,107.816-4.58,161.717-6.957
		c24.747-1.082,49.502-2.203,74.274-3.045c58.373-1.988,116.745-3.689,175.126-5.719c24.706-0.867,49.395-2.318,75.206-3.549
		c-1.534,95.135-3.053,188.783-4.571,282.424c-22.049-23.475-42.908-48.205-66.336-70.23
		c-101.117-95.092-223.812-137.598-360.386-144.1c-93.468-4.447-185.193,8.6-276.482,28.039
		c-99.797,21.248-178.972,73.383-241.47,152.707c-40.253,51.096-66.732,109.105-85.761,170.852c-3.07-1.229-6.223-3.754-9.176-3.539
		c-54.775,4.166-109.501,8.59-164.243,13.088c-41.596,3.406-83.193,6.865-124.766,10.537c-47.687,4.207-95.333,8.879-143.011,12.98
		c-26.298,2.244-52.663,3.457-78.96,5.66c-38.074,3.152-76.105,6.799-114.163,10.215c-21,1.873-42,3.82-63.026,5.504
		c-35.483,2.83-70.991,5.488-106.497,8.227c-15.167-15.826-29.963-32.023-45.641-47.314c-10.01-9.762-21.314-18.213-32.025-27.256
		c4.547,1.379,9.399,2.113,13.558,4.234c27.594,14.061,54.998,28.484,82.559,42.611c3.854,1.963,8.186,2.996,12.295,4.488
		c0.776-0.932,1.543-1.855,2.311-2.764c-3.35-7.023-6.023-14.49-10.19-20.969c-14.59-22.699-29.797-45.014-44.601-67.582
		c-14.275-21.768-34.146-36.752-57.02-48.354c-44.635-22.627-92.37-35.846-141.245-44.271
		c-54.403-9.398-109.187-16.693-163.92-24.063c-32.834-4.422-65.89-7.145-98.839-10.752c-16.561-1.791-29.261,3.756-38.041,18.336
		c-6.394,10.604-14.531,20.258-20.051,31.273c-8.285,16.52-21.669,23.039-38.865,21.982c-26.868-1.617-53.81-3.324-80.438-7.08
		c-13.417-1.906-20.241,1.42-22.998,14.227c-0.734,3.441-2.021,6.809-2.558,10.281c-6.957,44.297-17.04,86.934-44.477,124.553
		c-15.002,20.555-3.408,48.785,20.332,61.656c8.573,4.662,16.652,5.768,24.252-1.707
		C1648.935,2975.31,1647.021,2984.222,1645.114,2993.142z"/>
	<path fill-rule="evenodd" clip-rule="evenodd" fill="#333333" d="M3140.303,2872.204c19.028-61.746,45.508-119.756,85.761-170.852
		c62.498-79.324,141.673-131.459,241.47-152.707c91.289-19.439,183.015-32.486,276.482-28.039
		c136.574,6.502,259.269,49.008,360.386,144.1c23.428,22.025,44.287,46.756,66.336,70.23c-0.842,50.361-1.584,100.73-2.558,151.107
		c-0.743,39.311-1.815,78.598-2.591,117.9c-0.974,50.814-1.75,101.611-2.707,152.426c-0.825,44.188-1.766,88.352-2.641,132.523
		c-0.907,45.928-1.766,91.891-2.657,137.828c-0.874,44.617-1.782,89.217-2.641,133.834c-0.907,45.938-1.782,91.893-2.689,137.83
		c-0.858,44.615-1.767,89.242-2.624,133.834c-0.908,45.5-1.717,91-2.789,136.516c-0.083,3.664-1.881,7.313-2.872,10.959
		c-109.649-5.859-206.467-42.941-289.809-115.605c-49.741-43.355-92.956-92.404-132.713-144.521
		c-63.951-83.813-147.656-133.596-250.737-153.697c-61.615-12.031-112.933-45.359-158.325-87.361
		c-95.135-88.004-150.834-198.281-178.105-323.666c-20.068-92.262-18.814-184.443,4.983-276.078
		C3139.824,2876.628,3139.982,2874.407,3140.303,2872.204z M3822.845,3367.952l-0.372,0.264
		c19.854-8.961,40.673-16.238,59.372-27.148c139.925-81.592,210.889-244.846,158.953-392.996c7.344,6.09,14.3,12.807,22.222,18.014
		c4.712,3.111,11.338,6.113,16.454,5.289c20.497-3.342,43.478-35.912,31.686-57.531c-5.915-10.842-12.896-21.141-18.202-32.264
		c-6.767-14.152-13.847-28.443-18.08-43.453c-6.411-22.809-10.521-46.26-15.596-69.455c-2.434-11.1-9.432-12.617-19.87-11.486
		c-29.261,3.127-58.629,5.611-88.021,7.162c-12.898,0.693-23.758-4.795-30.647-17.098c-6.461-11.512-14.193-22.338-21.166-33.568
		c-9.349-15.025-21.619-23.385-40.384-20.943c-31.382,4.035-62.895,6.891-94.276,10.777c-41.828,5.182-83.854,9.498-125.369,16.734
		c-40.227,7.039-80.486,15.25-119.641,26.736c-41.053,12.055-83.252,25.959-110.788,61.293
		c-23.459,30.104-42.224,63.885-62.87,96.166c-1.336,2.096-0.866,5.314-1.51,10.148c4.752-2.244,7.361-3.498,9.993-4.701
		c16.223-7.584,32.462-15.16,48.701-22.742c-55.542,52.844-92.213,115.912-103.188,192.488
		c-8.614,60.385-4.941,119.715,25.399,174.027c47.126,84.375,126.986,117.184,216.724,133.143c4.447,1.51,8.854,3.176,13.343,4.496
		c55.575,16.322,112.157,21.273,169.557,13.799c33.478-4.365,63.604-18.855,93.236-34.254
		C3819.949,3369.876,3821.392,3368.927,3822.845,3367.952z"/>
	<path fill-rule="evenodd" clip-rule="evenodd" fill="#454545" d="M2097.441,3395.538c-46.202,5.611-92.37,8.854-138.225-2.748
		c-3.573-0.322-7.153-0.668-10.728-1.016l0.281,0.133c-2.492-1.576-4.794-3.631-7.492-4.688
		c-107.975-42.438-173.278-122.43-196.515-234.15c-9.053-43.479-6.577-89.82-5.521-134.783
		c1.303-55.699,10.397-110.211,44.295-157.229c0.586-0.793,0.107-2.377,0.132-3.582l-0.124,0.346
		c1.312-1.014,2.607-2.029,3.903-3.027c15.092-8.07,29.879-16.818,45.352-24.121c49.263-23.236,101.356-36.322,155.751-36.307
		c32.875,0,66.03,2.896,98.55,7.84c49.338,7.516,96.942,22.006,141.69,44.773c1.429,0.973,2.855,1.922,4.267,2.896l-0.115-0.107
		c28.848,33.773,49.156,71.889,58.587,115.516c15.909,73.498,16.404,147.574,6.767,221.732
		c-5.825,44.773-19.334,87.229-46.846,123.965C2212.965,3362.407,2158.553,3385.149,2097.441,3395.538z"/>
	<path fill-rule="evenodd" clip-rule="evenodd" fill="#665953" d="M2851.988,4255.583c-81.774-3.979-156.989-27.461-228.235-65.354
		c-67.565-35.961-128.429-81.527-186.72-130.691c-25.787-21.768-31.134-51.869-14.746-76.525
		c15.068-22.66,48.628-31.143,71.411-15.514c24.029,16.453,46.086,35.779,69.215,53.586
		c53.909,41.439,111.085,77.287,174.978,101.58c99.755,37.924,194.18,22.857,285.056-28.387
		c57.407-32.363,108.42-73.242,157.525-116.795c9.44-8.367,20.085-16.982,31.729-20.861c27.297-9.158,51.078,0.314,64.115,24.393
		c10.827,19.92,10.199,47.002-11.98,66.162c-39.501,34.08-79.283,68.094-121.202,99.055
		c-56.517,41.754-118.024,75.238-187.009,91.643C2921.938,4245.995,2886.72,4249.806,2851.988,4255.583z"/>
	<path fill-rule="evenodd" clip-rule="evenodd" fill="#FDFCFC" d="M2097.441,3395.538c61.112-10.389,115.524-33.131,154.009-84.557
		c27.512-36.736,41.021-79.191,46.846-123.965c9.638-74.158,9.143-148.234-6.767-221.732
		c-9.431-43.627-29.739-81.742-58.587-115.516c8.606,3.516,17.221,7.039,25.836,10.537c10.728,9.043,22.032,17.494,32.042,27.256
		c15.678,15.291,30.474,31.488,45.641,47.314c21.264,30.152,39.517,61.922,50.079,97.486
		c22.346,75.289,23.477,149.688-12.715,221.518c-28.419,56.434-76.526,90.381-133.646,112.975
		c-41.3,16.322-84.522,25.068-128.529,30.127C2107.03,3397.519,2102.194,3396.075,2097.441,3395.538z"/>
	<path fill-rule="evenodd" clip-rule="evenodd" fill="#FDFCFC" d="M1783.669,2857.476c-0.025,1.205,0.454,2.789-0.132,3.582
		c-33.898,47.018-42.992,101.529-44.295,157.229c-1.057,44.963-3.532,91.305,5.521,134.783
		c23.237,111.721,88.541,191.713,196.515,234.15c2.698,1.057,5,3.111,7.492,4.688c-28.32-7.904-57.399-13.822-84.787-24.186
		c-47.299-17.906-88.59-46.605-123.751-82.609c-55.253-56.605-91.272-123.643-97.139-203.742
		c-2.145-29.203,1.188-58.811,2.021-88.229c1.906-8.92,3.821-17.832,5.744-26.734c8.829-9.109,17.329-18.617,26.587-27.297
		C1710.163,2908.423,1744.078,2879.243,1783.669,2857.476z"/>
	<path fill-rule="evenodd" clip-rule="evenodd" fill="#FDFCFC" d="M1948.489,3391.774c3.574,0.348,7.155,0.693,10.728,1.016
		C1955.644,3392.468,1952.063,3392.122,1948.489,3391.774z"/>
	<path fill-rule="evenodd" clip-rule="evenodd" fill="#4F4E4E" d="M1783.669,2857.476c-39.592,21.768-73.506,50.947-106.225,81.635
		c-9.258,8.68-17.758,18.188-26.587,27.297c-7.6,7.475-15.679,6.369-24.252,1.707c-23.74-12.871-35.334-41.102-20.332-61.656
		c27.437-37.619,37.52-80.256,44.477-124.553c0.536-3.473,1.823-6.84,2.558-10.281c2.756-12.807,9.581-16.133,22.998-14.227
		c26.629,3.756,53.571,5.463,80.438,7.08c17.196,1.057,30.581-5.463,38.865-21.982c5.521-11.016,13.657-20.67,20.051-31.273
		c8.78-14.58,21.48-20.127,38.041-18.336c32.95,3.607,66.005,6.33,98.839,10.752c54.733,7.369,109.517,14.664,163.92,24.063
		c48.875,8.426,96.61,21.645,141.245,44.271c22.874,11.602,42.744,26.586,57.02,48.354c14.804,22.568,30.011,44.883,44.601,67.582
		c4.167,6.479,6.841,13.945,10.19,20.969c-0.768,0.908-1.534,1.832-2.311,2.764c-4.109-1.492-8.441-2.525-12.295-4.488
		c-27.561-14.127-54.965-28.551-82.559-42.611c-4.158-2.121-9.011-2.855-13.558-4.234c-8.632-3.498-17.246-7.021-25.853-10.537
		l0.115,0.107c-1.411-0.975-2.838-1.924-4.267-2.896c-44.748-22.768-92.352-37.258-141.69-44.773
		c-32.52-4.943-65.675-7.84-98.55-7.84c-54.396-0.016-106.489,13.07-155.751,36.307c-15.473,7.303-30.259,16.051-45.368,24.121
		c-1.296,0.998-2.591,2.014-3.887,3.027L1783.669,2857.476z"/>
	<path fill-rule="evenodd" clip-rule="evenodd" fill="#474747" d="M3818.504,3370.849c-29.632,15.398-59.759,29.889-93.236,34.254
		c-57.399,7.475-113.981,2.523-169.557-13.799c-4.488-1.32-8.896-2.986-13.343-4.496c-0.974-0.842-1.791-2.029-2.913-2.484
		c-67.103-28.229-106.472-79.818-123.603-149.084c-19.499-78.869-17.815-158.689-6.106-238.375
		c7.386-50.221,25.201-96.455,60.535-134.381c4.514-4.834,9.671-9.068,14.531-13.582c-1.098-1.51-2.179-3.045-3.259-4.58
		c-26.052,14.275-52.094,28.551-78.12,42.828c-16.239,7.582-32.479,15.158-48.701,22.742c-2.632,1.203-5.241,2.457-9.993,4.701
		c0.644-4.834,0.174-8.053,1.51-10.148c20.646-32.281,39.411-66.063,62.87-96.166c27.536-35.334,69.735-49.238,110.788-61.293
		c39.154-11.486,79.414-19.697,119.641-26.736c41.516-7.236,83.541-11.553,125.369-16.734c31.382-3.887,62.895-6.742,94.276-10.777
		c18.765-2.441,31.035,5.918,40.384,20.943c6.973,11.23,14.705,22.057,21.166,33.568c6.89,12.303,17.749,17.791,30.647,17.098
		c29.392-1.551,58.76-4.035,88.021-7.162c10.438-1.131,17.437,0.387,19.87,11.486c5.075,23.195,9.185,46.646,15.596,69.455
		c4.233,15.01,11.313,29.301,18.08,43.453c5.306,11.123,12.287,21.422,18.202,32.264c11.792,21.619-11.188,54.189-31.686,57.531
		c-5.116,0.824-11.742-2.178-16.454-5.289c-7.922-5.207-14.878-11.924-22.222-18.014c-3.029-4.25-5.422-9.152-9.135-12.676
		c-38.635-36.48-80.339-68.811-127.918-92.996c-1.214-0.363-2.418-0.734-3.606-1.098c-0.933-0.438-1.856-0.891-2.789-1.344
		c0.503,0.84,1.015,1.691,1.51,2.533c0.998,0.816,1.973,1.658,2.938,2.5c35.269,35.762,54.445,79.455,59.462,128.693
		c4.167,40.838,5.917,82.006,6.932,123.084c1.708,68.225-20.002,129.494-58.397,185.357c-23.608,34.344-54.058,61.6-87.32,86.09
		l0.372-0.264C3821.392,3368.927,3819.949,3369.876,3818.504,3370.849z"/>
	<path fill-rule="evenodd" clip-rule="evenodd" fill="#FCFCFC" d="M3403.434,2887.149c26.026-14.277,52.068-28.553,78.12-42.828
		c1.08,1.535,2.161,3.07,3.259,4.58c-4.86,4.514-10.018,8.748-14.531,13.582c-35.334,37.926-53.149,84.16-60.535,134.381
		c-11.709,79.686-13.393,159.506,6.106,238.375c17.131,69.266,56.5,120.855,123.603,149.084c1.122,0.455,1.939,1.643,2.913,2.484
		c-89.737-15.959-169.598-48.768-216.724-133.143c-30.341-54.313-34.014-113.643-25.399-174.027
		C3311.221,3003.062,3347.892,2939.993,3403.434,2887.149z"/>
	<path fill-rule="evenodd" clip-rule="evenodd" fill="#FCFCFC" d="M3903.746,2842.399c47.579,24.186,89.283,56.516,127.918,92.996
		c3.713,3.523,6.105,8.426,9.135,12.676c51.936,148.15-19.028,311.404-158.953,392.996c-18.699,10.91-39.518,18.188-59.372,27.148
		c33.263-24.49,63.712-51.746,87.32-86.09c38.396-55.863,60.105-117.133,58.397-185.357c-1.015-41.078-2.765-82.246-6.932-123.084
		c-5.017-49.238-24.193-92.932-59.462-128.693C3902.45,2844.124,3903.101,2843.267,3903.746,2842.399z"/>
	<path fill-rule="evenodd" clip-rule="evenodd" fill="#FCFCFC" d="M3818.504,3370.849c1.444-0.973,2.888-1.922,4.341-2.896
		C3821.392,3368.927,3819.949,3369.876,3818.504,3370.849z"/>
	<path fill-rule="evenodd" clip-rule="evenodd" fill="#FDFCFC" d="M2228.792,2846.979c1.429,0.973,2.855,1.922,4.267,2.896
		C2231.647,2848.901,2230.22,2847.952,2228.792,2846.979z"/>
	<path fill-rule="evenodd" clip-rule="evenodd" fill="#FDFCFC" d="M1783.545,2857.821c1.295-1.014,2.591-2.029,3.887-3.027
		C1786.153,2855.792,1784.857,2856.808,1783.545,2857.821z"/>
	<path fill-rule="evenodd" clip-rule="evenodd" fill="#FCFCFC" d="M3898.86,2842.491c-0.495-0.842-1.007-1.693-1.51-2.533
		c0.933,0.453,1.856,0.906,2.789,1.344C3899.726,2841.706,3899.314,2842.12,3898.86,2842.491z"/>
	<path fill-rule="evenodd" clip-rule="evenodd" fill="#FCFCFC" d="M3900.139,2841.302c1.188,0.363,2.393,0.734,3.606,1.098
		c-0.645,0.867-1.296,1.725-1.948,2.592c-0.965-0.842-1.939-1.684-2.938-2.5C3899.314,2842.12,3899.726,2841.706,3900.139,2841.302z
		"/>
</g>
</svg>
