<svg version="1" xmlns="http://www.w3.org/2000/svg" width="841.333" height="841.333" viewBox="0 0 631.000000 631.000000"><path d="M275.9 42.4c-.2.2-4 .7-8.4 1-4.4.4-9.6.8-11.6 1.1-11.2 1.2-13.1 1.5-13.7 1.9-.4.2-2.9.6-5.7 1-2.7.3-9.7 1.8-15.5 3.2-5.8 1.3-10.9 2.6-11.5 2.7-.5.2-1.6.6-2.2 1-.7.5-1.3.6-1.3.3s-3.7.8-8.2 2.5c-4.6 1.7-9.4 3.4-10.8 3.8-3.1 1-9.4 3.8-22.9 10.2-17.6 8.4-35.8 21-49.9 34.8l-8.4 8.1H95.7c-12.5-.1-19.4.6-27.1 2.6-16 4.1-29.4 11.5-41.4 22.8-4.8 4.5-13.5 15.8-15.1 19.7-.6 1.3-1.5 3.1-2.1 3.9-.9 1.3-3.2 6.6-3.4 8-.1.3-.5 1.1-.9 1.7-.5.7-.6 1.3-.2 1.3.3 0-.1 1.3-1 3-.9 1.6-1.3 3-1.1 3 .3 0 0 1.5-.5 3.2-3.3 11.7-3.3 36.3 0 54.3 2.3 12.3 3.7 16.6 8.7 27.5 6.4 13.7 18.9 27.6 29.7 33 3.4 1.7 3.6 2.4 4.2 18.5.6 15.1 1.3 24.6 2.1 29.5.3 1.9.7 5.5.9 8 1.4 15 3.9 29.6 11 64 2.6 12.3 8.8 30.7 12.4 36.7 1.7 2.6 3.2 6.8 3.5 9.3.3 2.5 1 7 1.6 10 .6 3 1.3 7 1.6 8.9.3 1.8.8 4.3 1 5.5.2 1.1.6 3.3.9 4.9.3 1.5 1.2 5.3 2.1 8.5.9 3.1 1.8 6.8 2.2 8.1.3 1.4 3.1 10.2 6.4 19.5 3.2 9.4 6 17.5 6.1 18.1.2.5 1.1 2.7 2 4.9.9 2.1 1.7 4 1.7 4.3 0 .2.6 1.1 1.3 1.9 7 8.7 14.5 12.9 24.7 13.9 7.8.8 17.2 1.8 22.6 2.4 3.3.4 10.1.7 15.1.6 7.6-.1 9.8-.5 14.6-2.9 6.1-2.9 11.6-8.6 14.5-14.8.9-2 2.1-3.8 2.6-3.8s2.5 1 4.5 2.2c6.6 4.1 9.5 5.7 18.6 10.1 10.4 5.1 18.6 8.5 21.2 9 1 .2 2.5.7 3.3 1 1.7.7 15.5 4.7 17.9 5.2.9.2 5 1.1 9.1 2 4.1.8 9.7 1.8 12.5 2 2.7.3 7.9.8 11.5 1.2 8.4 1 43.7 1 51.5 0 3.3-.4 7.8-1 10.1-1.2 6.4-.6 10.3-1.4 18.9-3.6 4.4-1.2 8.7-2.2 9.5-2.4.8-.2 5.3-1.7 10-3.5 4.7-1.7 9.1-3.3 9.8-3.4.7-.1 1.8-.8 2.4-1.4.7-.7 1.7-1.2 2.4-1.2 1.3 0 10.8-4.8 15.9-8.1 1.7-1 3.9-2.3 5-2.9 2.6-1.3 5.9-3.3 6.5-4 .3-.3 2.1-1.7 4-3s6.5-4.8 10.2-7.8l6.8-5.4 8.2-.2c9.2-.3 13.4-1.7 20.9-7.1 2.7-1.9 5.3-3.5 5.8-3.5s1.1-.4 1.3-.9c.2-.6 3.9-3.4 8.3-6.4 19.5-13 28.3-19.4 32.1-23.2 4.4-4.2 8-10.3 8.8-14.5.2-1.4.5-2.5.6-2.5.1 0 .3-4.1.3-9.2.1-5 .4-9.3.7-9.6.3-.2 3-1.8 6-3.6 10.7-6.2 18.9-11.6 22.3-14.8 3.1-2.8 9.3-13.6 10.1-17.4.2-.8.5-2.1.9-2.9 1.1-3 3.8-14 4.2-17.2.3-1.8.7-4.4 1-5.8 1-4.9 1.7-10.7 2.2-18 .7-10.1 1.2-69.3.5-70.4-.3-.5-.7-4.5-.9-9-.2-4.4-.5-8.7-.8-9.4-.2-.6 0-1.2.6-1.2s1.7-.6 2.4-1.3c.8-.6 2.9-2.3 4.7-3.6 1.8-1.4 5.3-4.9 7.8-7.8 2.5-2.9 5-5.9 5.7-6.7.7-.7.9-1.6.6-2-.4-.3-.2-.6.4-.6 1 0 2.9-3.5 8.2-15.2 2.3-5.3 6.6-20.9 7.5-27.8.3-2.5.9-5.6 1.2-7 1.2-4.7 1.5-30.5.4-37-1.5-10-1.6-10.4-5.4-19.7-6.1-15-14.1-25.3-27.1-35.2-8.9-6.8-24.2-14.2-32.1-15.5-1.6-.2-2.9-.5-2.9-.6 0-.2-.4-.2-6.5-1.5-5.3-1.1-31.9-1.4-35.2-.4-2.6.7-3.5.3-7.1-2.9-9.5-8.5-20.6-17-27.7-21.3-1.9-1.1-5.3-3.1-7.5-4.4-6.7-4.1-28.3-14.5-29.9-14.5-.8 0-1.6-.4-1.8-.8-.3-.9-25.9-10-30.3-10.8-1.3-.2-3.5-.8-4.7-1.3-1.3-.5-2.6-.9-3-1-.5 0-.9-.1-1-.2-.2 0-1.1-.2-2.1-.4s-5.2-1-9.5-1.9c-7.1-1.4-11.8-2.2-18.2-3.1-1.4-.2-5-.9-8-1.5s-8.4-1.3-12-1.5c-3.6-.3-7.8-.7-9.5-1-3.4-.7-72-1.6-72.6-1.1z"/></svg>