<?xml version="1.0" encoding="utf-8"?>
<!-- Generator: Adobe Illustrator 16.0.0, SVG Export Plug-In . SVG Version: 6.00 Build 0)  -->
<!DOCTYPE svg PUBLIC "-//W3C//DTD SVG 1.1//EN" "http://www.w3.org/Graphics/SVG/1.1/DTD/svg11.dtd">
<svg version="1.1" id="Layer_1" xmlns="http://www.w3.org/2000/svg" xmlns:xlink="http://www.w3.org/1999/xlink" x="0px" y="0px"
	 width="631.42px" height="546.171px" viewBox="0 0 631.42 546.171" enable-background="new 0 0 631.42 546.171"
	 xml:space="preserve">
<g>
	<path fill-rule="evenodd" clip-rule="evenodd" fill="#FFFFFF" d="M302.981,545.638c-5.741-0.568-11.485-1.113-17.223-1.712
		c-10.149-1.058-20.073-3.256-29.899-5.947c-9.969-2.729-19.863-5.66-29.303-9.958c-9.633-4.387-19.08-9.11-27.946-14.928
		c-0.796-0.522-1.631-0.987-2.522-1.523c-1.097,2.281-1.993,4.585-3.249,6.673c-4.661,7.745-11.124,13.179-20.168,15.085
		c-1.481,0.313-3.009,0.505-4.521,0.553c-5.861,0.188-11.701-0.169-17.533-0.774c-7.975-0.828-15.961-1.546-23.937-2.362
		c-7.018-0.718-13.402-3.028-18.827-7.684c-3.863-3.314-6.668-7.418-8.445-12.117c-5.384-14.238-10.522-28.565-14.737-43.204
		c-3.109-10.798-5.316-21.792-7.172-32.864c-0.822-4.901-1.955-9.764-2.492-14.693c-0.364-3.336-1.586-5.977-3.612-8.59
		c-3.094-3.99-4.244-8.942-5.803-13.649c-4.417-13.344-7.344-27.063-10.044-40.829c-2.623-13.373-5.036-26.783-6.526-40.342
		c-0.91-8.281-1.945-16.549-2.75-24.84c-0.402-4.141-0.423-8.319-0.597-12.481c-0.278-6.642-0.554-13.284-0.793-19.927
		c-0.036-0.989-0.364-1.576-1.281-2.058c-12.493-6.571-21.948-16.315-28.997-28.4C9.15,219.715,5.634,209.581,3.4,199
		c-1.51-7.154-2.398-14.382-2.601-21.692c-0.198-1.162,0.344-2.496-0.799-3.438c0-5.137,0-10.275,0-15.412
		c1.215-1.114,0.563-2.609,0.802-3.922c0.172-6.467,1.668-12.69,3.476-18.857c5.009-17.089,14.212-31.43,27.929-42.856
		C48.958,78.868,68.444,72.43,90.009,71.804c4.557-0.132,9.13,0.236,13.693,0.449c1.366,0.064,2.403-0.221,3.396-1.267
		c2.759-2.905,5.582-5.754,8.493-8.506c3.144-2.971,6.3-5.949,9.652-8.676c13.991-11.383,29.164-20.837,45.706-28.124
		c13.794-6.077,27.745-11.649,42.39-15.355c14.39-3.641,28.936-6.404,43.697-8.013c9.487-1.035,18.987-1.845,28.538-1.906
		c4.724,0.022,9.448,0.058,14.172,0.047c0.425-0.001,0.849-0.296,1.274-0.455c5.78,0,11.559,0,17.338,0
		c0.423,0.159,0.843,0.449,1.268,0.456c1.994,0.033,3.989-0.012,5.983-0.029c4.726,0.178,9.459,0.233,14.174,0.561
		c8.394,0.583,16.838,0.907,25.149,2.112c12.043,1.746,24.01,4.056,35.966,6.355c11.495,2.21,22.633,5.771,33.692,9.558
		c12.983,4.445,25.388,10.189,37.502,16.609c13.156,6.972,25.425,15.237,36.742,24.906c3.102,2.65,6.087,5.436,9.119,8.154
		c2.351-0.415,4.697-1.084,7.07-1.203c10.178-0.509,20.355-0.745,30.479,0.909c12.053,1.968,23.552,5.669,34.028,11.931
		c15.073,9.009,26.879,21.167,34.157,37.389c3.831,8.539,6.617,17.355,7.336,26.743c-0.007,8.371-0.014,16.742-0.021,25.113
		c-1.379,16.396-4.755,32.311-11.394,47.446c-6.017,13.714-15.122,24.84-27.637,33.127c-0.329,0.217-0.635,0.468-1.04,0.77
		c0.215,2.688,0.397,5.396,0.652,8.096c0.684,7.255,1.343,14.507,1.405,21.807c0.08,9.297,0.476,18.594,0.408,27.889
		c-0.056,7.763-0.538,15.523-0.917,23.281c-0.253,5.197-0.425,10.413-1.036,15.573c-1.68,14.189-4.247,28.186-9.503,41.584
		c-3.024,7.709-8.076,13.525-15.117,17.77c-7.066,4.26-14.073,8.619-21.104,12.938c-0.337,0.207-0.653,0.448-1.065,0.733
		c0,3.113-0.189,6.248,0.033,9.354c0.953,13.262-4.515,23.271-15.245,30.699c-13.574,9.397-27.158,18.782-40.718,28.201
		c-3.886,2.699-7.735,5.433-12.291,6.946c-2.452,0.814-4.935,1.367-7.538,1.271c-3.042-0.112-6.093-0.107-9.125-0.34
		c-1.147-0.089-1.836,0.429-2.528,1.063c-5.098,4.662-10.62,8.78-16.234,12.788c-16.101,11.491-33.557,20.218-52.482,26.024
		c-8.583,2.634-17.239,4.915-26.102,6.373c-7.914,1.303-15.875,2.185-23.895,2.51c-0.476,0.019-0.949,0.111-1.424,0.171
		c-1.333,0.017-2.67-0.018-3.999,0.07c-0.75,0.05-1.486,0.301-2.229,0.462c-7.545,0-15.091,0-22.636,0
		C306.49,545.993,304.736,545.815,302.981,545.638z M456.556,487.078c4.323,1.699,8.562,1.743,12.809,1.488
		c4.581-0.274,8.387-2.496,12.044-5.047c8.423-5.876,16.858-11.733,25.294-17.592c6.458-4.484,13.019-8.829,19.361-13.472
		c6.854-5.016,10.379-11.804,10.099-20.464c-0.153-4.73,0.022-9.472-0.075-14.204c-0.032-1.579,0.558-2.479,1.872-3.275
		c8.029-4.861,16.01-9.804,24.02-14.696c3.104-1.896,5.975-4.047,8.213-6.961c2.535-3.301,3.98-7.138,5.299-11.008
		c4.157-12.205,6.391-24.831,7.667-37.61c0.78-7.813,1.183-15.677,1.421-23.528c0.485-16.045,0.336-32.096-0.446-48.132
		c-0.223-4.559-0.785-9.102-1.212-13.651c-0.344-3.671-0.684-7.343-1.094-11.006c-0.146-1.298,0.25-2.123,1.442-2.704
		c1.366-0.666,2.712-1.404,3.982-2.238c11.411-7.496,19.594-17.693,24.84-30.225c7.081-16.915,10.555-34.602,10.686-52.92
		c0.039-5.361,0.354-10.729-0.432-16.096c-2.127-14.541-7.395-27.687-17.045-38.887c-7.145-8.293-15.464-15.117-25.438-19.837
		c-15.507-7.339-31.885-9.973-48.898-9.259c-4.413,0.186-8.822,0.589-12.97,2.259c-1.738,0.7-2.91,0.393-4.226-0.97
		c-9.469-9.807-20.146-18.152-31.625-25.447c-21.696-13.787-45.126-23.641-69.884-30.43c-10.37-2.844-20.911-4.869-31.491-6.712
		c-5.918-1.03-11.84-2.098-17.8-2.826c-6.123-0.748-12.285-1.246-18.445-1.597c-10.326-0.587-20.66-1.209-30.999-1.373
		c-9.701-0.153-19.411,0.247-29.117,0.45c-3.205,0.067-6.408,0.26-9.611,0.432c-11.458,0.613-22.832,1.964-34.141,3.895
		c-11.782,2.012-23.414,4.656-34.864,8.109c-10.466,3.157-20.492,7.43-30.503,11.765c-16.164,6.999-30.977,16.188-44.599,27.314
		c-6.596,5.387-12.772,11.243-18.494,17.547c-1.951,2.149-3.998,3.234-6.943,2.815c-2.454-0.349-4.955-0.386-7.438-0.491
		c-8.129-0.345-16.194,0.245-24.162,1.897c-19.723,4.091-35.906,14.015-48.175,29.976c-11.409,14.842-16.121,32.05-16.702,50.522
		c-0.121,3.831,0.099,7.688,0.413,11.513c0.511,6.226,0.969,12.474,1.917,18.641c1.744,11.347,5.285,22.169,11.153,32.075
		c6.909,11.661,16.177,20.914,28.762,26.428c1.694,0.742,2.249,1.721,2.296,3.401c0.148,5.292,0.367,10.582,0.56,15.873
		c0.202,5.531,0.377,11.064,0.622,16.594c0.103,2.321,0.286,4.645,0.549,6.954c0.888,7.802,1.775,15.605,2.766,23.396
		c0.768,6.04,1.51,12.094,2.584,18.083c1.895,10.565,3.957,21.104,6.093,31.623c2.379,11.716,5.487,23.241,9.583,34.485
		c0.999,2.741,2.428,5.172,4.384,7.392c1.11,1.26,1.947,2.998,2.293,4.648c0.854,4.071,1.268,8.231,2.015,12.328
		c1.637,8.984,3.21,17.985,5.104,26.916c2.448,11.544,6.116,22.751,10.073,33.857c2.583,7.249,5.119,14.521,7.946,21.676
		c2.193,5.55,6.309,9.382,11.869,11.634c3.391,1.373,6.961,1.811,10.559,2.151c6.144,0.581,12.279,1.256,18.429,1.754
		c5.91,0.479,11.83,1.01,17.752,1.118c11.993,0.219,19.761-9.815,21.236-17.362c0.684-3.497,0.45-7.175,0.636-10.77
		c0.03-0.585,0.083-1.169,0.143-1.99c0.565,0.438,0.875,0.675,1.183,0.916c16.435,12.907,34.538,22.807,54.366,29.343
		c14.624,4.821,29.508,8.761,44.941,10.111c6.866,0.601,13.724,1.431,20.604,1.708c11.307,0.456,22.615,0.131,33.907-0.753
		c10.492-0.82,20.841-2.411,31.063-4.932c27.509-6.783,52.053-19.362,73.747-37.549
		C451.087,491.837,453.794,489.455,456.556,487.078z"/>
	<path fill-rule="evenodd" clip-rule="evenodd" fill="#FFACAC" d="M631.024,144.451c0.137-0.04,0.269-0.027,0.396,0.039
		c0,8.348,0,16.696,0,25.045c-0.139,0.017-0.277,0.027-0.416,0.03C631.011,161.193,631.018,152.822,631.024,144.451z"/>
	<path fill-rule="evenodd" clip-rule="evenodd" fill="#FFAAAA" d="M285.574,0.407c0.025-0.135,0.037-0.27,0.034-0.407
		c5.137,0,10.275,0,15.412,0c-0.425,0.159-0.849,0.454-1.274,0.455C295.022,0.465,290.298,0.43,285.574,0.407z"/>
	<path fill-rule="evenodd" clip-rule="evenodd" fill="#FFA8A8" d="M325.583,0c-0.041,0.146-0.032,0.288,0.026,0.427
		c-1.994,0.017-3.989,0.062-5.983,0.029c-0.425-0.007-0.845-0.296-1.268-0.456C320.767,0,323.175,0,325.583,0z"/>
	<path fill-rule="evenodd" clip-rule="evenodd" fill="#FFA9A9" d="M0,154.604c0.268-0.023,0.535-0.046,0.802-0.069
		c-0.239,1.313,0.413,2.809-0.802,3.922C0,157.173,0,155.888,0,154.604z"/>
	<path fill-rule="evenodd" clip-rule="evenodd" fill="#FFACAC" d="M0,173.869c1.144,0.942,0.602,2.276,0.799,3.438
		c-0.266-0.022-0.533-0.044-0.799-0.067C0,176.117,0,174.993,0,173.869z"/>
	<path fill-rule="evenodd" clip-rule="evenodd" fill="#FFA7A7" d="M330.881,546.171c0.742-0.161,1.479-0.412,2.229-0.462
		c1.329-0.088,2.666-0.054,3.999-0.07c0.012,0.177,0.022,0.354,0.034,0.532C335.056,546.171,332.969,546.171,330.881,546.171z"/>
	<path fill-rule="evenodd" clip-rule="evenodd" fill="#FFA7A7" d="M302.981,545.638c1.754,0.178,3.509,0.355,5.263,0.533
		c-1.766,0-3.532,0-5.298,0C302.958,545.993,302.97,545.815,302.981,545.638z"/>
	<path fill-rule="evenodd" clip-rule="evenodd" fill="#3F3E3E" d="M456.556,487.078c-2.762,2.377-5.469,4.759-8.231,7.075
		c-21.694,18.187-46.238,30.766-73.747,37.549c-10.223,2.521-20.571,4.111-31.063,4.932c-11.292,0.884-22.6,1.209-33.907,0.753
		c-6.879-0.277-13.738-1.107-20.604-1.708c-15.433-1.351-30.317-5.29-44.941-10.111c-19.828-6.536-37.931-16.436-54.366-29.343
		c-0.308-0.241-0.618-0.479-1.183-0.916c-0.06,0.821-0.113,1.405-0.143,1.99c-0.186,3.595,0.048,7.272-0.636,10.77
		c-1.476,7.547-9.244,17.581-21.236,17.362c-5.923-0.108-11.843-0.639-17.752-1.118c-6.15-0.498-12.286-1.173-18.429-1.754
		c-3.598-0.341-7.168-0.778-10.559-2.151c-5.56-2.252-9.676-6.084-11.869-11.634c-2.828-7.155-5.364-14.427-7.946-21.676
		c-3.957-11.106-7.625-22.313-10.073-33.857c-1.894-8.931-3.468-17.932-5.104-26.916c-0.747-4.097-1.161-8.257-2.015-12.328
		c-0.347-1.65-1.183-3.389-2.293-4.648c-1.956-2.22-3.385-4.65-4.384-7.392c-4.096-11.244-7.205-22.77-9.583-34.485
		c-2.136-10.52-4.198-21.058-6.093-31.623c-1.074-5.989-1.816-12.043-2.584-18.083c-0.991-7.79-1.877-15.594-2.766-23.396
		c-0.263-2.31-0.446-4.633-0.549-6.954c-0.245-5.529-0.42-11.063-0.622-16.594c-0.193-5.291-0.412-10.581-0.56-15.873
		c-0.047-1.68-0.602-2.659-2.296-3.401c-12.585-5.514-21.854-14.767-28.762-26.428c-5.869-9.906-9.41-20.728-11.153-32.075
		c-0.948-6.167-1.406-12.416-1.917-18.641c-0.313-3.825-0.533-7.683-0.413-11.513c0.581-18.472,5.293-35.68,16.702-50.522
		c12.27-15.961,28.453-25.885,48.175-29.976c7.968-1.652,16.033-2.242,24.162-1.897c2.483,0.105,4.985,0.143,7.438,0.491
		c2.945,0.419,4.993-0.667,6.943-2.815c5.722-6.304,11.898-12.16,18.494-17.547c13.622-11.126,28.435-20.315,44.599-27.314
		c10.012-4.335,20.037-8.607,30.503-11.765c11.45-3.454,23.082-6.098,34.864-8.109c11.309-1.931,22.683-3.281,34.141-3.895
		c3.203-0.172,6.406-0.364,9.611-0.432c9.706-0.204,19.416-0.604,29.117-0.45c10.338,0.163,20.672,0.785,30.999,1.373
		c6.16,0.351,12.322,0.849,18.445,1.597c5.96,0.728,11.882,1.795,17.8,2.826c10.58,1.843,21.121,3.868,31.491,6.712
		c24.758,6.79,48.188,16.644,69.884,30.43c11.479,7.295,22.156,15.64,31.625,25.447c1.315,1.362,2.487,1.67,4.226,0.97
		c4.147-1.67,8.557-2.074,12.97-2.259c17.014-0.714,33.392,1.92,48.898,9.259c9.974,4.721,18.293,11.544,25.438,19.837
		c9.65,11.201,14.918,24.347,17.045,38.887c0.785,5.367,0.471,10.734,0.432,16.096c-0.131,18.319-3.604,36.006-10.686,52.92
		c-5.246,12.532-13.429,22.729-24.84,30.225c-1.271,0.834-2.616,1.572-3.982,2.238c-1.192,0.581-1.588,1.406-1.442,2.704
		c0.41,3.664,0.75,7.335,1.094,11.006c0.427,4.549,0.989,9.092,1.212,13.651c0.782,16.036,0.932,32.087,0.446,48.132
		c-0.238,7.852-0.641,15.715-1.421,23.528c-1.276,12.779-3.51,25.405-7.667,37.61c-1.318,3.87-2.764,7.707-5.299,11.008
		c-2.238,2.914-5.109,5.064-8.213,6.961c-8.01,4.893-15.99,9.835-24.02,14.696c-1.314,0.796-1.904,1.696-1.872,3.275
		c0.098,4.732-0.078,9.474,0.075,14.204c0.28,8.66-3.244,15.448-10.099,20.464c-6.343,4.643-12.903,8.987-19.361,13.472
		c-8.436,5.858-16.871,11.716-25.294,17.592c-3.657,2.551-7.463,4.772-12.044,5.047
		C465.117,488.821,460.879,488.777,456.556,487.078z M463.341,306.341c0.203-0.708,0.57-1.413,0.585-2.125
		c0.179-8.502,0.306-17.005,0.443-25.508c0.014-0.853,0.002-1.705,0.002-2.618c-5.82,0.197-11.34,0.365-16.856,0.576
		c-11.865,0.454-23.729,0.946-35.594,1.39c-3.649,0.137-5.696-1.543-6.322-5.187c-1.971-11.453-3.881-22.917-5.861-34.368
		c-0.814-4.713-0.313-3.864-4.579-3.343c-0.129,0.016-0.238,0.19-0.183,0.143c0,3.353-0.045,6.556,0.013,9.756
		c0.059,3.288,0.221,6.573,0.33,9.86c0.21,6.334,0.475,12.668,0.601,19.004c0.079,3.97-1.988,6.075-5.959,6.306
		c-2.083,0.121-4.17,0.148-6.254,0.241c-13.305,0.594-26.608,1.203-39.913,1.788c-9.698,0.426-19.396,0.827-29.096,1.231
		c-9.939,0.415-19.877,0.856-29.819,1.212c-3.673,0.132-5.843-2.008-6.001-5.672c-0.156-3.606-0.288-7.213-0.428-10.82
		c-0.39-10.021-0.764-20.042-1.176-30.062c-0.114-2.789-0.334-5.573-0.512-8.444c-1.213,0-2.221,0-3.294,0
		c-0.149,0.557-0.292,1.007-0.389,1.467c-3.19,15.215-6.365,30.433-9.571,45.646c-0.86,4.082-2.917,5.695-6.928,5.319
		c-8.704-0.815-17.399-1.726-26.099-2.585c-7.343-0.727-14.688-1.431-22.031-2.155c-8.939-0.882-17.876-1.783-26.816-2.656
		c-1.401-0.138-2.813-0.172-4.397-0.264c0,1.165-0.005,2.033,0.001,2.902c0.114,15.726,0.206,31.452,0.351,47.179
		c0.127,13.879,0.332,27.758,0.47,41.638c0.179,17.973,0.328,35.945,0.486,53.918c0.078,8.826,0.134,17.653,0.243,26.479
		c0.009,0.756,0.184,1.596,0.548,2.247c3.024,5.419,6.703,10.363,10.938,14.898c5.052,5.408,10.531,10.357,16.344,14.915
		c14.096,11.05,29.869,18.999,46.811,24.605c23.843,7.891,48.392,11.016,73.458,10.272c12.688-0.376,25.257-1.635,37.686-4.421
		c24.509-5.492,46.633-15.676,66.109-31.747c11.264-9.294,20.676-20.105,29.099-31.899c0.58-0.813,1.461-1.572,1.115-2.784
		c0.169-0.85,0.461-1.696,0.489-2.551c0.269-8.313-0.179-16.624,0.411-24.953c0.627-8.848-0.138-17.741,0.488-26.63
		c0.618-8.769,0.111-17.582,0.441-26.389c0.594-15.834,0.436-31.696,0.622-47.546c0.016-1.345,0.363-2.688,0.362-4.03
		C463.709,309.165,463.474,307.753,463.341,306.341z M96.856,370.812c0.155-0.023,0.31-0.047,0.464-0.07
		c-0.144-2.353-0.369-4.704-0.42-7.059c-0.395-18.458-0.371-36.914,0.496-55.361c0.079-1.682,0.233-3.365,0.461-5.033
		c0.304-2.225,1.397-3.939,3.622-4.668c3.396-1.112,6.62,1.262,6.775,5.052c0.065,1.594-0.224,3.199-0.276,4.801
		c-0.385,11.947-1.073,23.887-0.663,35.851c0.437,12.751,0.537,25.519,1.244,38.253c0.841,15.144,3,30.157,5.509,45.114
		c3.702,22.071,10.137,43.358,18.333,64.146c0.611,1.55,1.488,2.247,3.173,2.37c4.398,0.321,8.783,0.832,13.176,1.233
		c3.254,0.297,6.513,0.541,9.958,0.824c-0.156-1.055-0.231-1.836-0.391-2.599c-2.061-9.825-3.701-19.708-3.754-29.779
		c-0.011-2.164-0.752-3.778-2.204-5.348c-6.646-7.19-13.235-14.436-19.752-21.743c-1.143-1.282-2.12-2.86-2.702-4.473
		c-3.334-9.236-5.635-18.759-6.473-28.535c-0.918-10.708-1.612-21.448-1.951-32.189c-0.317-10.021-0.059-20.062-0.014-30.094
		c0.013-2.887,0.087-5.778,0.277-8.658c0.202-3.046,2.328-5.004,5.141-4.945c2.911,0.061,4.991,2.205,5.111,5.279
		c0.016,0.4-0.009,0.803-0.015,1.203c-0.082,5.216-0.25,10.431-0.23,15.646c0.063,16.774,0.589,33.527,2.037,50.25
		c0.793,9.16,2.537,18.093,5.468,26.79c0.445,1.32,1.223,2.623,2.145,3.671c3.923,4.458,7.949,8.825,11.957,13.21
		c3.249,3.554,6.492,7.114,9.803,10.609c1.361,1.438,2.901,2.7,4.996,3.528c0.035-0.762,0.086-1.292,0.079-1.821
		c-0.158-12.438-0.342-24.874-0.479-37.312c-0.152-13.883-0.269-27.767-0.39-41.649c-0.167-19.02-0.319-38.039-0.485-57.058
		c-0.082-9.39-0.169-18.778-0.275-28.167c-0.083-7.382-0.24-14.764-0.284-22.146c-0.029-4.809,2.312-6.95,7.047-6.576
		c2.639,0.208,5.272,0.486,7.908,0.74c9.423,0.909,18.845,1.819,28.267,2.731c7.585,0.735,15.171,1.466,22.756,2.212
		c6.866,0.676,13.729,1.373,20.595,2.048c0.298,0.029,0.608-0.066,0.909-0.103c0.15-0.458,0.312-0.831,0.392-1.219
		c1.813-8.71,3.605-17.424,5.423-26.133c1.392-6.669,2.768-13.342,4.239-19.994c0.688-3.113,2.452-4.717,5.471-4.822
		c4.088-0.142,8.189-0.16,12.275,0.001c3.407,0.134,5.401,2.335,5.564,5.748c0.296,6.171,0.585,12.342,0.836,18.515
		c0.363,8.899,0.678,17.8,1.042,26.699c0.055,1.343,0.271,2.68,0.425,4.144c0.859,0,1.566,0.029,2.27-0.005
		c8.255-0.396,16.508-0.845,24.766-1.193c21.086-0.888,42.173-1.725,63.259-2.604c1.734-0.072,3.462-0.313,5.296-0.485
		c0-1.036,0.021-1.833-0.003-2.628c-0.302-10.025-0.607-20.051-0.919-30.076c-0.063-2.005-0.216-4.009-0.214-6.014
		c0.004-3.052,1.576-5.141,4.546-5.596c4.833-0.741,9.694-1.332,14.561-1.808c2.557-0.25,4.452,1.213,5.297,3.658
		c0.234,0.679,0.407,1.388,0.529,2.097c1.483,8.611,2.946,17.226,4.428,25.837c0.691,4.014,1.412,8.022,2.141,12.153
		c0.934,0,1.72,0.027,2.503-0.004c14.672-0.592,29.344-1.196,44.016-1.782c2.565-0.103,5.134-0.156,7.701-0.192
		c1.894-0.026,3.443,0.719,4.515,2.304c0.939,1.39,1.094,2.979,1.045,4.612c-0.228,7.698-0.488,15.396-0.654,23.096
		c-0.352,16.284-0.651,32.57-0.972,48.854c-0.482,24.549-0.974,49.097-1.441,73.646c-0.189,9.947-0.331,19.896-0.479,29.845
		c-0.033,2.205-0.006,4.411-0.006,6.991c0.943-0.561,1.557-0.88,2.122-1.269c10.704-7.37,21.386-14.772,32.124-22.094
		c1.376-0.938,1.831-2.004,1.839-3.589c0.033-7.543,0.198-15.085,0.235-22.628c0.087-17.979,0.118-35.957,0.191-53.936
		c0.041-10.112,0.108-20.224,0.196-30.336c0.008-0.949,0.116-1.938,0.4-2.838c0.713-2.25,2.76-3.561,5.196-3.48
		c2.335,0.077,4.265,1.656,4.771,4.012c0.185,0.854,0.227,1.752,0.225,2.63c-0.006,2.728-0.076,5.455-0.099,8.184
		c-0.165,20.303-0.325,40.605-0.478,60.908c-0.005,0.602,0.097,1.204,0.181,2.176c1.021-0.593,1.767-1.008,2.496-1.453
		c6.504-3.967,12.845-8.239,19.557-11.815c5.352-2.852,8.191-6.878,9.49-12.717c2.216-9.96,4.196-19.931,4.801-30.129
		c0.556-9.367,1.28-18.735,1.466-28.112c0.282-14.285-0.208-28.564-1.611-42.795c-0.622-6.305-1.145-12.629-2.066-18.893
		c-2.04-13.879-4.34-27.72-6.467-41.586c-2.343-15.267-6.193-30.134-11.688-44.566c-11.269-29.598-28.948-54.565-53.81-74.325
		c-16.797-13.351-35.526-23.2-55.612-30.568c-22.474-8.244-45.746-13.038-69.456-15.839c-15.073-1.782-30.216-2.589-45.394-2.645
		c-14.052-0.051-28.071,0.556-42.06,1.974c-10.457,1.061-20.879,2.271-31.181,4.43c-16.439,3.446-32.479,8.141-47.843,14.997
		c-23.028,10.276-43.21,24.47-59.812,43.571c-16.188,18.625-27.423,39.977-35.009,63.366c-8.263,25.478-11.776,51.719-12.351,78.375
		c-0.467,21.681,0.746,43.291,3.556,64.826c2.274,17.427,5.318,34.703,8.849,51.904C95.135,363.871,96.038,367.332,96.856,370.812z"
		/>
	<path fill-rule="evenodd" clip-rule="evenodd" fill="#FFFFFF" d="M96.856,370.812c-0.818-3.479-1.721-6.94-2.439-10.44
		c-3.53-17.201-6.575-34.478-8.849-51.904c-2.811-21.535-4.023-43.145-3.556-64.826c0.575-26.656,4.088-52.897,12.351-78.375
		c7.585-23.389,18.821-44.742,35.009-63.366c16.602-19.101,36.783-33.294,59.812-43.571c15.364-6.856,31.404-11.551,47.843-14.997
		c10.301-2.159,20.724-3.369,31.181-4.43c13.989-1.418,28.008-2.025,42.06-1.974c15.178,0.055,30.321,0.863,45.394,2.645
		c23.71,2.802,46.982,7.595,69.456,15.839c20.086,7.368,38.815,17.217,55.612,30.568c24.861,19.759,42.541,44.727,53.81,74.325
		c5.495,14.433,9.346,29.3,11.688,44.566c2.127,13.867,4.427,27.707,6.467,41.586c0.922,6.264,1.444,12.588,2.066,18.893
		c1.403,14.231,1.894,28.51,1.611,42.795c-0.186,9.377-0.91,18.745-1.466,28.112c-0.604,10.198-2.585,20.169-4.801,30.129
		c-1.299,5.839-4.139,9.865-9.49,12.717c-6.712,3.576-13.053,7.849-19.557,11.815c-0.729,0.445-1.476,0.86-2.496,1.453
		c-0.084-0.972-0.186-1.574-0.181-2.176c0.152-20.303,0.313-40.605,0.478-60.908c0.022-2.729,0.093-5.456,0.099-8.184
		c0.002-0.878-0.04-1.776-0.225-2.63c-0.507-2.355-2.437-3.935-4.771-4.012c-2.437-0.08-4.483,1.23-5.196,3.48
		c-0.284,0.9-0.393,1.889-0.4,2.838c-0.088,10.112-0.155,20.224-0.196,30.336c-0.073,17.979-0.104,35.957-0.191,53.936
		c-0.037,7.543-0.202,15.085-0.235,22.628c-0.008,1.585-0.463,2.651-1.839,3.589c-10.738,7.321-21.42,14.724-32.124,22.094
		c-0.565,0.389-1.179,0.708-2.122,1.269c0-2.58-0.027-4.786,0.006-6.991c0.148-9.949,0.29-19.897,0.479-29.845
		c0.468-24.549,0.959-49.097,1.441-73.646c0.32-16.284,0.62-32.57,0.972-48.854c0.166-7.699,0.427-15.397,0.654-23.096
		c0.049-1.633-0.105-3.222-1.045-4.612c-1.071-1.584-2.621-2.33-4.515-2.304c-2.567,0.036-5.136,0.089-7.701,0.192
		c-14.672,0.586-29.344,1.19-44.016,1.782c-0.783,0.031-1.569,0.004-2.503,0.004c-0.729-4.131-1.449-8.14-2.141-12.153
		c-1.481-8.611-2.944-17.226-4.428-25.837c-0.122-0.709-0.295-1.417-0.529-2.097c-0.845-2.445-2.74-3.908-5.297-3.658
		c-4.866,0.476-9.728,1.067-14.561,1.808c-2.97,0.455-4.542,2.544-4.546,5.596c-0.002,2.005,0.151,4.009,0.214,6.014
		c0.312,10.025,0.617,20.05,0.919,30.076c0.023,0.795,0.003,1.592,0.003,2.628c-1.834,0.172-3.562,0.413-5.296,0.485
		c-21.086,0.88-42.173,1.717-63.259,2.604c-8.257,0.349-16.51,0.798-24.766,1.193c-0.704,0.034-1.41,0.005-2.27,0.005
		c-0.154-1.464-0.37-2.801-0.425-4.144c-0.365-8.899-0.68-17.8-1.042-26.699c-0.251-6.173-0.54-12.344-0.836-18.515
		c-0.164-3.413-2.158-5.614-5.564-5.748c-4.086-0.161-8.188-0.143-12.275-0.001c-3.019,0.105-4.782,1.708-5.471,4.822
		c-1.471,6.651-2.847,13.325-4.239,19.994c-1.818,8.709-3.611,17.423-5.423,26.133c-0.081,0.389-0.242,0.761-0.392,1.219
		c-0.301,0.037-0.611,0.132-0.909,0.103c-6.866-0.675-13.729-1.373-20.595-2.048c-7.584-0.747-15.17-1.478-22.756-2.212
		c-9.422-0.912-18.844-1.822-28.267-2.731c-2.635-0.254-5.269-0.532-7.908-0.74c-4.735-0.374-7.076,1.767-7.047,6.576
		c0.044,7.382,0.201,14.764,0.284,22.146c0.106,9.389,0.193,18.777,0.275,28.167c0.166,19.019,0.319,38.038,0.485,57.058
		c0.121,13.883,0.237,27.767,0.39,41.649c0.137,12.438,0.321,24.874,0.479,37.312c0.007,0.529-0.044,1.06-0.079,1.821
		c-2.095-0.828-3.635-2.091-4.996-3.528c-3.312-3.495-6.555-7.056-9.803-10.609c-4.007-4.385-8.033-8.752-11.957-13.21
		c-0.922-1.048-1.7-2.351-2.145-3.671c-2.931-8.697-4.675-17.63-5.468-26.79c-1.448-16.723-1.974-33.476-2.037-50.25
		c-0.02-5.215,0.148-10.43,0.23-15.646c0.006-0.4,0.031-0.803,0.015-1.203c-0.12-3.074-2.2-5.219-5.111-5.279
		c-2.813-0.059-4.939,1.899-5.141,4.945c-0.19,2.88-0.264,5.771-0.277,8.658c-0.045,10.032-0.303,20.072,0.014,30.094
		c0.339,10.741,1.033,21.481,1.951,32.189c0.838,9.776,3.138,19.299,6.473,28.535c0.582,1.612,1.559,3.19,2.702,4.473
		c6.517,7.308,13.106,14.553,19.752,21.743c1.451,1.569,2.192,3.184,2.204,5.348c0.053,10.071,1.693,19.954,3.754,29.779
		c0.16,0.763,0.235,1.544,0.391,2.599c-3.445-0.283-6.704-0.527-9.958-0.824c-4.393-0.401-8.777-0.912-13.176-1.233
		c-1.685-0.123-2.562-0.82-3.173-2.37c-8.196-20.788-14.631-42.075-18.333-64.146c-2.509-14.957-4.668-29.971-5.509-45.114
		c-0.707-12.734-0.807-25.502-1.244-38.253c-0.41-11.964,0.277-23.903,0.663-35.851c0.052-1.602,0.341-3.207,0.276-4.801
		c-0.155-3.79-3.379-6.164-6.775-5.052c-2.225,0.729-3.318,2.443-3.622,4.668c-0.228,1.668-0.383,3.352-0.461,5.033
		c-0.866,18.447-0.891,36.903-0.496,55.361c0.051,2.354,0.276,4.706,0.42,7.059C97.166,370.765,97.011,370.788,96.856,370.812z"/>
	<path fill-rule="evenodd" clip-rule="evenodd" fill="#FEFEFE" d="M460.896,442.676c0.346,1.212-0.535,1.972-1.115,2.784
		c-8.423,11.794-17.835,22.605-29.099,31.899c-19.477,16.071-41.601,26.255-66.109,31.747c-12.429,2.786-24.997,4.045-37.686,4.421
		c-25.066,0.743-49.615-2.382-73.458-10.272c-16.942-5.606-32.715-13.556-46.811-24.605c-5.813-4.558-11.292-9.507-16.344-14.915
		c-4.236-4.535-7.915-9.479-10.938-14.898c-0.364-0.651-0.539-1.491-0.548-2.247c-0.109-8.826-0.165-17.653-0.243-26.479
		c-0.158-17.973-0.307-35.945-0.486-53.918c-0.139-13.88-0.343-27.759-0.47-41.638c-0.145-15.727-0.237-31.453-0.351-47.179
		c-0.006-0.869-0.001-1.737-0.001-2.902c1.584,0.092,2.996,0.126,4.397,0.264c8.94,0.873,17.877,1.774,26.816,2.656
		c7.343,0.725,14.688,1.429,22.031,2.155c8.7,0.859,17.395,1.77,26.099,2.585c4.011,0.376,6.067-1.237,6.928-5.319
		c3.206-15.212,6.38-30.431,9.571-45.646c0.097-0.46,0.24-0.91,0.389-1.467c1.074,0,2.082,0,3.294,0
		c0.177,2.871,0.397,5.655,0.512,8.444c0.412,10.02,0.786,20.041,1.176,30.062c0.14,3.606,0.272,7.213,0.428,10.82
		c0.158,3.664,2.328,5.804,6.001,5.672c9.941-0.355,19.88-0.797,29.819-1.212c9.699-0.404,19.397-0.806,29.096-1.231
		c13.305-0.585,26.608-1.194,39.913-1.788c2.084-0.093,4.171-0.12,6.254-0.241c3.971-0.23,6.038-2.336,5.959-6.306
		c-0.126-6.336-0.391-12.669-0.601-19.004c-0.109-3.287-0.271-6.572-0.33-9.86c-0.058-3.2-0.013-6.403-0.013-9.756
		c-0.056,0.047,0.054-0.127,0.183-0.143c4.266-0.521,3.765-1.37,4.579,3.343c1.98,11.452,3.891,22.915,5.861,34.368
		c0.626,3.644,2.673,5.323,6.322,5.187c11.865-0.443,23.729-0.936,35.594-1.39c5.517-0.211,11.036-0.379,16.856-0.576
		c0,0.913,0.012,1.766-0.002,2.618c-0.138,8.503-0.265,17.006-0.443,25.508c-0.015,0.712-0.382,1.417-0.585,2.125
		c-3.126-3.775-6.48-7.32-10.336-10.368c-12.318-9.738-26.62-12.941-41.944-12.605c-7.311,0.16-14.511,1.327-21.7,2.661
		c-16.155,2.998-27.427,12.221-34.449,26.813c-5.565,11.564-6.863,23.793-4.768,36.377c2.321,13.939,7.84,26.377,17.817,36.609
		c5.644,5.787,12.022,10.316,20.171,11.916c11.18,2.195,20.185,7.893,27.043,17.007c3.625,4.817,7.643,9.292,12.022,13.444
		C436.655,437.162,447.836,442.1,460.896,442.676z M203.376,320.72c-2.149,3.165-3.54,6.628-4.123,10.415
		c-0.857,5.573-1.021,11.188-0.633,16.79c0.462,6.68,2.478,12.917,6.491,18.343c5.158,6.974,11.947,11.591,20.585,12.989
		c5.105,0.826,10.221,0.229,15.254-1.031c9.979-2.498,15.981-8.926,18.01-18.834c1.884-9.197,1.82-18.484-0.255-27.693
		c-0.965-4.284-2.798-8.153-5.756-11.446c0.18-0.104,0.407-0.34,0.532-0.294c1.424,0.519,2.875,0.994,4.236,1.649
		c2.452,1.182,4.841,2.492,7.273,3.717c0.666,0.336,1.389,0.559,2.49,0.993c-0.34-0.922-0.429-1.396-0.669-1.775
		c-1.669-2.64-3.392-5.246-5.055-7.891c-1.583-2.517-3.691-4.49-6.396-5.648c-3.228-1.382-6.478-2.898-9.874-3.655
		c-6.243-1.39-12.584-2.38-18.916-3.321c-5.068-0.755-10.185-1.178-15.277-1.774c-1.841-0.216-3.313,0.3-4.34,1.905
		c-0.605,0.944-1.362,1.813-1.83,2.819c-1.203,2.59-3.224,3.36-5.906,3.026c-2.384-0.297-4.778-0.514-7.17-0.739
		c-2.052-0.192-2.545,0.138-3.027,2.162c-0.333,1.4-0.497,2.841-0.814,4.245c-0.799,3.544-2.097,6.865-4.149,9.91
		c-1.422,2.11-0.693,4.734,1.507,6.31c1.91,1.368,2.555,1.184,4.814-1.153c3.24-3.351,6.731-6.416,10.654-8.953
		C201.747,321.323,202.592,321.069,203.376,320.72z M319.648,472.857c0.669-0.088,1.777-0.237,2.886-0.38
		c6.706-0.861,13.253-2.271,19.344-5.366c8.816-4.48,16.185-10.923,23.522-17.387c2.176-1.917,2.257-5.034,0.605-7.475
		c-1.597-2.36-4.238-3.161-6.983-1.968c-1.009,0.438-1.928,1.137-2.799,1.829c-1.317,1.046-2.54,2.21-3.832,3.29
		c-5.239,4.379-10.701,8.431-16.897,11.39c-9.718,4.639-19.531,5.056-29.521,0.829c-7.304-3.091-13.795-7.443-19.937-12.387
		c-1.623-1.307-3.24-2.636-4.971-3.788c-3.018-2.008-7.001-0.766-8.481,2.536c-1.121,2.502-0.481,5.207,1.982,7.324
		c7.193,6.182,14.811,11.762,23.409,15.875C304.691,470.393,311.754,472.338,319.648,472.857z"/>
	<path fill-rule="evenodd" clip-rule="evenodd" fill="#343434" d="M460.896,442.676c-13.06-0.576-24.24-5.514-33.698-14.48
		c-4.38-4.152-8.397-8.627-12.022-13.444c-6.858-9.114-15.863-14.812-27.043-17.007c-8.148-1.6-14.527-6.129-20.171-11.916
		c-9.978-10.232-15.496-22.67-17.817-36.609c-2.096-12.584-0.798-24.813,4.768-36.377c7.022-14.593,18.294-23.815,34.449-26.813
		c7.189-1.334,14.39-2.501,21.7-2.661c15.324-0.336,29.626,2.867,41.944,12.605c3.855,3.048,7.21,6.593,10.336,10.368
		c0.133,1.412,0.368,2.824,0.369,4.236c0.001,1.343-0.347,2.686-0.362,4.03c-0.187,15.85-0.028,31.712-0.622,47.546
		c-0.33,8.807,0.177,17.62-0.441,26.389c-0.626,8.889,0.139,17.782-0.488,26.63c-0.59,8.329-0.143,16.64-0.411,24.953
		C461.356,440.979,461.064,441.826,460.896,442.676z M429.068,374.666c12.79-5.337,24.646-20.502,22.221-38.132
		c-0.239-1.737-0.654-3.45-0.987-5.174c0.661,0.266,1.434,0.396,1.959,0.826c1.193,0.979,2.252,0.591,3.295-0.122
		c2.248-1.539,2.731-4.532,1.139-7.05c-1.641-2.595-2.856-5.355-3.52-8.362c-0.429-1.945-1.019-3.861-1.35-5.822
		c-0.234-1.379-1.003-1.731-2.182-1.606c-2.53,0.268-5.065,0.518-7.582,0.888c-2.912,0.429-4.448-0.29-5.983-2.872
		c-0.65-1.094-1.419-2.122-2.187-3.141c-0.927-1.231-2.117-1.849-3.739-1.656c-3.162,0.377-6.338,0.635-9.503,0.984
		c-4.353,0.48-8.735,0.8-13.041,1.556c-5.254,0.922-10.481,2.069-15.646,3.407c-4.556,1.18-8.79,3.186-11.665,7.136
		c-1.971,2.709-3.688,5.604-5.498,8.428c-0.358,0.561-0.623,1.181-0.932,1.773c0.1,0.132,0.199,0.264,0.299,0.396
		c0.696-0.276,1.379-0.597,2.093-0.817c0.822-0.254,1.672-0.419,2.511-0.623c-0.825,0.979-1.675,1.938-2.471,2.94
		c-6.722,8.464-9.228,18.124-7.234,28.66c1.836,9.703,8.074,15.978,17.216,19.356c2.764,1.021,5.691,1.603,8.544,2.386
		c4.039,0.813,8.049,1.854,12.125,2.356c2.479,0.306,5.062-0.183,7.593-0.374c4.126-0.312,7.817-1.881,11.302-4.016
		C426.919,375.55,427.993,375.107,429.068,374.666z"/>
	<path fill-rule="evenodd" clip-rule="evenodd" fill="#464646" d="M252.951,320.252c2.958,3.293,4.791,7.162,5.756,11.446
		c2.075,9.209,2.139,18.496,0.255,27.693c-2.029,9.908-8.031,16.336-18.01,18.834c-5.033,1.26-10.148,1.857-15.254,1.031
		c-8.638-1.398-15.427-6.016-20.585-12.989c-4.014-5.426-6.029-11.663-6.491-18.343c-0.389-5.603-0.225-11.217,0.633-16.79
		c0.583-3.787,1.973-7.25,4.123-10.415c1.874-1.835,4.271-2.754,6.599-3.807c4.564-2.064,9.293-3.374,14.348-3.382
		c4.239-0.006,8.436,0.146,12.646,0.896C242.67,315.441,248.217,316.677,252.951,320.252z"/>
	<path fill-rule="evenodd" clip-rule="evenodd" fill="#363535" d="M319.648,472.857c-7.895-0.52-14.958-2.465-21.673-5.677
		c-8.598-4.113-16.215-9.693-23.409-15.875c-2.463-2.117-3.103-4.822-1.982-7.324c1.479-3.302,5.463-4.544,8.481-2.536
		c1.73,1.152,3.348,2.481,4.971,3.788c6.141,4.943,12.632,9.296,19.937,12.387c9.99,4.227,19.804,3.81,29.521-0.829
		c6.196-2.959,11.658-7.011,16.897-11.39c1.292-1.08,2.515-2.244,3.832-3.29c0.871-0.692,1.79-1.391,2.799-1.829
		c2.745-1.193,5.387-0.393,6.983,1.968c1.651,2.44,1.57,5.558-0.605,7.475c-7.338,6.464-14.706,12.906-23.522,17.387
		c-6.091,3.096-12.638,4.505-19.344,5.366C321.426,472.62,320.317,472.77,319.648,472.857z"/>
	<path fill-rule="evenodd" clip-rule="evenodd" fill="#525050" d="M252.951,320.252c-4.734-3.575-10.281-4.811-15.981-5.825
		c-4.21-0.749-8.407-0.901-12.646-0.896c-5.055,0.008-9.783,1.317-14.348,3.382c-2.328,1.053-4.726,1.972-6.599,3.807
		c-0.784,0.35-1.63,0.604-2.342,1.064c-3.923,2.537-7.414,5.603-10.654,8.953c-2.259,2.337-2.904,2.521-4.814,1.153
		c-2.2-1.575-2.93-4.199-1.507-6.31c2.052-3.045,3.351-6.366,4.149-9.91c0.317-1.404,0.481-2.845,0.814-4.245
		c0.482-2.024,0.975-2.354,3.027-2.162c2.392,0.226,4.786,0.442,7.17,0.739c2.682,0.334,4.703-0.437,5.906-3.026
		c0.467-1.006,1.225-1.875,1.83-2.819c1.027-1.605,2.5-2.121,4.34-1.905c5.092,0.597,10.209,1.02,15.277,1.774
		c6.332,0.941,12.673,1.932,18.916,3.321c3.396,0.757,6.646,2.273,9.874,3.655c2.705,1.158,4.813,3.132,6.396,5.648
		c1.663,2.645,3.386,5.251,5.055,7.891c0.24,0.379,0.329,0.854,0.669,1.775c-1.101-0.435-1.824-0.657-2.49-0.993
		c-2.432-1.225-4.821-2.535-7.273-3.717c-1.362-0.655-2.812-1.131-4.236-1.649C253.358,319.912,253.131,320.147,252.951,320.252z"/>
	<path fill-rule="evenodd" clip-rule="evenodd" fill="#474747" d="M378.771,324.682c-0.839,0.204-1.688,0.369-2.511,0.623
		c-0.714,0.221-1.396,0.541-2.093,0.817c-0.1-0.132-0.199-0.264-0.299-0.396c0.309-0.593,0.573-1.213,0.932-1.773
		c1.81-2.824,3.527-5.719,5.498-8.428c2.875-3.95,7.109-5.956,11.665-7.136c5.164-1.338,10.392-2.485,15.646-3.407
		c4.306-0.756,8.688-1.075,13.041-1.556c3.165-0.35,6.341-0.607,9.503-0.984c1.622-0.192,2.813,0.425,3.739,1.656
		c0.768,1.019,1.536,2.047,2.187,3.141c1.535,2.582,3.071,3.301,5.983,2.872c2.517-0.37,5.052-0.62,7.582-0.888
		c1.179-0.125,1.947,0.228,2.182,1.606c0.331,1.961,0.921,3.877,1.35,5.822c0.663,3.007,1.879,5.768,3.52,8.362
		c1.593,2.518,1.109,5.511-1.139,7.05c-1.043,0.713-2.102,1.101-3.295,0.122c-0.525-0.431-1.298-0.561-1.959-0.826
		c-0.629-0.992-1.092-2.158-1.917-2.945c-3.75-3.58-7.788-6.801-12.434-9.184c-0.466-0.471-0.923-0.969-1.924-0.607
		c0.553,0.483,0.954,0.833,1.354,1.184c3.492,4.012,5.303,8.727,5.711,13.984c0.267,3.434,0.433,6.877,0.578,10.318
		c0.145,3.447,0.095,6.882-0.755,10.269c-2.022,8.06-6.361,14.614-12.774,19.841c-0.766,0.59-1.531,1.181-2.297,1.771
		c-3.484,2.136-7.176,3.705-11.302,4.017c-2.531,0.191-5.114,0.68-7.593,0.374c-4.076-0.503-8.086-1.543-12.125-2.356
		c-0.713-0.486-1.395-1.028-2.145-1.448c-3.438-1.922-6.204-4.535-8.221-7.919c-1.83-3.071-2.813-6.445-3.48-9.931
		c-1.563-8.146-1.226-16.295,0.132-24.409c0.919-5.497,3.157-10.412,7.257-14.347c0.228-0.218,0.341-0.556,0.507-0.837
		C385.325,320.827,381.687,322.122,378.771,324.682z"/>
	<path fill-rule="evenodd" clip-rule="evenodd" fill="#F8F8F8" d="M378.771,324.682c2.916-2.56,6.555-3.854,10.104-5.548
		c-0.166,0.281-0.279,0.619-0.507,0.837c-4.1,3.935-6.338,8.85-7.257,14.347c-1.357,8.114-1.694,16.263-0.132,24.409
		c0.668,3.485,1.65,6.859,3.48,9.931c2.017,3.384,4.782,5.997,8.221,7.919c0.75,0.42,1.432,0.962,2.145,1.448
		c-2.853-0.783-5.78-1.364-8.544-2.386c-9.142-3.379-15.38-9.653-17.216-19.356c-1.993-10.536,0.513-20.196,7.234-28.66
		C377.096,326.619,377.945,325.66,378.771,324.682z"/>
	<path fill-rule="evenodd" clip-rule="evenodd" fill="#F8F7F7" d="M435.951,319.231c4.646,2.383,8.684,5.604,12.434,9.184
		c0.825,0.787,1.288,1.953,1.917,2.945c0.333,1.724,0.748,3.437,0.987,5.174c2.425,17.63-9.431,32.795-22.221,38.132
		c-0.309-0.148-0.618-0.298-0.927-0.446c6.413-5.227,10.752-11.781,12.774-19.841c0.85-3.387,0.899-6.821,0.755-10.269
		c-0.146-3.441-0.312-6.885-0.578-10.318c-0.408-5.258-2.219-9.973-5.711-13.984C435.571,319.615,435.762,319.424,435.951,319.231z"
		/>
	<path fill-rule="evenodd" clip-rule="evenodd" fill="#B5AEAE" d="M428.142,374.22c0.309,0.148,0.618,0.298,0.927,0.446
		c-1.075,0.441-2.149,0.884-3.224,1.324C426.61,375.4,427.376,374.81,428.142,374.22z"/>
	<path fill-rule="evenodd" clip-rule="evenodd" fill="#B4B6B6" d="M435.951,319.231c-0.189,0.192-0.38,0.384-0.569,0.576
		c-0.4-0.351-0.802-0.7-1.354-1.184C435.028,318.263,435.485,318.761,435.951,319.231z"/>
</g>
</svg>
